<mxfile host="app.diagrams.net" modified="2023-04-25T07:16:36.970Z" agent="Mozilla/5.0 (Windows NT 10.0; Win64; x64) AppleWebKit/537.36 (KHTML, like Gecko) Chrome/112.0.0.0 Safari/537.36" etag="BXTdcPW4YcT3kX7OBYs8" version="21.2.1" type="device">
  <diagram name="PÃ¡gina-1" id="URFW6SBBY42aUQPDpX5M">
    <mxGraphModel dx="1985" dy="2264" grid="1" gridSize="10" guides="1" tooltips="1" connect="1" arrows="1" fold="1" page="1" pageScale="1" pageWidth="827" pageHeight="1169" math="0" shadow="0">
      <root>
        <mxCell id="0" />
        <mxCell id="1" parent="0" />
        <mxCell id="vIT9YTBqe1MhlNfKoiLv-99" value="" style="rounded=0;whiteSpace=wrap;html=1;gradientColor=#e3e3e3;gradientDirection=radial;" parent="1" vertex="1">
          <mxGeometry x="881.5" y="1343" width="400" height="210" as="geometry" />
        </mxCell>
        <mxCell id="vIT9YTBqe1MhlNfKoiLv-83" value="" style="rounded=0;whiteSpace=wrap;html=1;gradientColor=#e3e3e3;gradientDirection=radial;" parent="1" vertex="1">
          <mxGeometry x="881.5" y="1123" width="400" height="220" as="geometry" />
        </mxCell>
        <mxCell id="vIT9YTBqe1MhlNfKoiLv-55" value="" style="rounded=0;whiteSpace=wrap;html=1;gradientColor=#e3e3e3;gradientDirection=radial;" parent="1" vertex="1">
          <mxGeometry x="881" y="913" width="400" height="210" as="geometry" />
        </mxCell>
        <mxCell id="vIT9YTBqe1MhlNfKoiLv-45" value="" style="rounded=0;whiteSpace=wrap;html=1;gradientColor=#e3e3e3;gradientDirection=radial;" parent="1" vertex="1">
          <mxGeometry x="881" y="761.74" width="400" height="151.26" as="geometry" />
        </mxCell>
        <mxCell id="vIT9YTBqe1MhlNfKoiLv-7" value="nivel" style="rounded=1;whiteSpace=wrap;html=1;shadow=1;" parent="1" vertex="1">
          <mxGeometry x="1097.5" y="808" width="87" height="30" as="geometry" />
        </mxCell>
        <mxCell id="vIT9YTBqe1MhlNfKoiLv-5" value="" style="rounded=0;whiteSpace=wrap;html=1;fillColor=#dbdbdb;" parent="1" vertex="1">
          <mxGeometry x="894.5" y="761.74" width="215" height="140" as="geometry" />
        </mxCell>
        <mxCell id="vIT9YTBqe1MhlNfKoiLv-6" value="&lt;h1&gt;Nombre Deporte&lt;/h1&gt;&lt;p&gt;Lorem ipsum dolor sit amet, consectetur adipisicing elit, sed do eiusmod tempor incididunt ut labore et dolore magna aliqua.&lt;/p&gt;" style="text;html=1;strokeColor=none;fillColor=none;spacing=5;spacingTop=-20;whiteSpace=wrap;overflow=hidden;rounded=0;" parent="1" vertex="1">
          <mxGeometry x="899.5" y="787.74" width="205.5" height="120" as="geometry" />
        </mxCell>
        <mxCell id="L-az5f-fQx2wf3-xbMq_-24" value="" style="rounded=0;whiteSpace=wrap;html=1;gradientColor=#e3e3e3;gradientDirection=radial;" parent="1" vertex="1">
          <mxGeometry y="899" width="400" height="201" as="geometry" />
        </mxCell>
        <mxCell id="L-az5f-fQx2wf3-xbMq_-23" value="" style="rounded=0;whiteSpace=wrap;html=1;gradientColor=#e3e3e3;gradientDirection=radial;" parent="1" vertex="1">
          <mxGeometry y="690" width="400" height="210" as="geometry" />
        </mxCell>
        <mxCell id="L-az5f-fQx2wf3-xbMq_-22" value="" style="rounded=0;whiteSpace=wrap;html=1;gradientColor=#e3e3e3;gradientDirection=radial;" parent="1" vertex="1">
          <mxGeometry y="470" width="400" height="220" as="geometry" />
        </mxCell>
        <mxCell id="L-az5f-fQx2wf3-xbMq_-21" value="" style="rounded=0;whiteSpace=wrap;html=1;gradientColor=#e3e3e3;gradientDirection=radial;" parent="1" vertex="1">
          <mxGeometry y="230" width="400" height="240" as="geometry" />
        </mxCell>
        <mxCell id="4cjA2mA3PP-OKHL7YIdG-9" value="" style="rounded=0;whiteSpace=wrap;html=1;gradientColor=#e3e3e3;gradientDirection=radial;" parent="1" vertex="1">
          <mxGeometry y="70" width="400" height="160" as="geometry" />
        </mxCell>
        <mxCell id="4cjA2mA3PP-OKHL7YIdG-10" value="" style="rounded=0;whiteSpace=wrap;html=1;fillColor=#dbdbdb;" parent="1" vertex="1">
          <mxGeometry x="15" y="70" width="215" height="140" as="geometry" />
        </mxCell>
        <mxCell id="4cjA2mA3PP-OKHL7YIdG-14" value="" style="rounded=1;whiteSpace=wrap;html=1;shadow=1;fillColor=#F5F5F5;" parent="1" vertex="1">
          <mxGeometry x="15" y="744" width="120" height="110" as="geometry" />
        </mxCell>
        <mxCell id="4cjA2mA3PP-OKHL7YIdG-16" value="nombre" style="rounded=0;whiteSpace=wrap;html=1;" parent="1" vertex="1">
          <mxGeometry x="54" y="754" width="65" height="20" as="geometry" />
        </mxCell>
        <mxCell id="4cjA2mA3PP-OKHL7YIdG-17" value="" style="ellipse;whiteSpace=wrap;html=1;aspect=fixed;" parent="1" vertex="1">
          <mxGeometry x="24" y="754" width="20" height="20" as="geometry" />
        </mxCell>
        <mxCell id="4cjA2mA3PP-OKHL7YIdG-18" value="comentario" style="rounded=0;whiteSpace=wrap;html=1;" parent="1" vertex="1">
          <mxGeometry x="25" y="784" width="95" height="40" as="geometry" />
        </mxCell>
        <mxCell id="4cjA2mA3PP-OKHL7YIdG-33" value="" style="rounded=1;whiteSpace=wrap;html=1;shadow=1;fillColor=#F5F5F5;" parent="1" vertex="1">
          <mxGeometry x="160" y="744" width="120" height="110" as="geometry" />
        </mxCell>
        <mxCell id="4cjA2mA3PP-OKHL7YIdG-34" value="nombre" style="rounded=0;whiteSpace=wrap;html=1;" parent="1" vertex="1">
          <mxGeometry x="199.5" y="754" width="65" height="20" as="geometry" />
        </mxCell>
        <mxCell id="4cjA2mA3PP-OKHL7YIdG-35" value="" style="ellipse;whiteSpace=wrap;html=1;aspect=fixed;" parent="1" vertex="1">
          <mxGeometry x="170" y="754" width="20" height="20" as="geometry" />
        </mxCell>
        <mxCell id="4cjA2mA3PP-OKHL7YIdG-36" value="comentario" style="rounded=0;whiteSpace=wrap;html=1;" parent="1" vertex="1">
          <mxGeometry x="170" y="784" width="95" height="40" as="geometry" />
        </mxCell>
        <mxCell id="4cjA2mA3PP-OKHL7YIdG-37" value="" style="rounded=1;whiteSpace=wrap;html=1;shadow=1;fillColor=#F5F5F5;" parent="1" vertex="1">
          <mxGeometry x="304" y="744" width="96" height="110" as="geometry" />
        </mxCell>
        <mxCell id="4cjA2mA3PP-OKHL7YIdG-49" value="nombre" style="rounded=0;whiteSpace=wrap;html=1;" parent="1" vertex="1">
          <mxGeometry x="347" y="754" width="53" height="20" as="geometry" />
        </mxCell>
        <mxCell id="4cjA2mA3PP-OKHL7YIdG-50" value="" style="ellipse;whiteSpace=wrap;html=1;aspect=fixed;" parent="1" vertex="1">
          <mxGeometry x="315" y="754" width="20" height="20" as="geometry" />
        </mxCell>
        <mxCell id="4cjA2mA3PP-OKHL7YIdG-51" value="&amp;nbsp; &amp;nbsp; comentario" style="rounded=0;whiteSpace=wrap;html=1;" parent="1" vertex="1">
          <mxGeometry x="313" y="784" width="87" height="40" as="geometry" />
        </mxCell>
        <mxCell id="4cjA2mA3PP-OKHL7YIdG-57" value="" style="ellipse;whiteSpace=wrap;html=1;aspect=fixed;" parent="1" vertex="1">
          <mxGeometry x="195" y="874" width="10" height="10" as="geometry" />
        </mxCell>
        <mxCell id="4cjA2mA3PP-OKHL7YIdG-58" value="" style="ellipse;whiteSpace=wrap;html=1;aspect=fixed;" parent="1" vertex="1">
          <mxGeometry x="212.5" y="874" width="10" height="10" as="geometry" />
        </mxCell>
        <mxCell id="4cjA2mA3PP-OKHL7YIdG-59" value="" style="ellipse;whiteSpace=wrap;html=1;aspect=fixed;fillColor=#4A4A4A;" parent="1" vertex="1">
          <mxGeometry x="178" y="874" width="10" height="10" as="geometry" />
        </mxCell>
        <mxCell id="4cjA2mA3PP-OKHL7YIdG-62" value="Principiante" style="rounded=1;whiteSpace=wrap;html=1;shadow=1;" parent="1" vertex="1">
          <mxGeometry x="24" y="404" width="87" height="30" as="geometry" />
        </mxCell>
        <mxCell id="4cjA2mA3PP-OKHL7YIdG-63" value="Intermedio" style="rounded=1;whiteSpace=wrap;html=1;shadow=1;" parent="1" vertex="1">
          <mxGeometry x="156.5" y="350" width="87" height="30" as="geometry" />
        </mxCell>
        <mxCell id="4cjA2mA3PP-OKHL7YIdG-64" value="Avanzado" style="rounded=1;whiteSpace=wrap;html=1;shadow=1;" parent="1" vertex="1">
          <mxGeometry x="297.75" y="290" width="87" height="30" as="geometry" />
        </mxCell>
        <mxCell id="4cjA2mA3PP-OKHL7YIdG-66" value="" style="rounded=0;whiteSpace=wrap;html=1;fillColor=#F5F5F5;" parent="1" vertex="1">
          <mxGeometry x="15" y="250" width="197.5" height="76" as="geometry" />
        </mxCell>
        <mxCell id="4cjA2mA3PP-OKHL7YIdG-67" value="" style="whiteSpace=wrap;html=1;aspect=fixed;fillColor=#F5F5F5;" parent="1" vertex="1">
          <mxGeometry x="284.75" y="350" width="100" height="100" as="geometry" />
        </mxCell>
        <mxCell id="4cjA2mA3PP-OKHL7YIdG-68" value="" style="endArrow=classic;html=1;rounded=0;exitX=1;exitY=0;exitDx=0;exitDy=0;entryX=0;entryY=0.5;entryDx=0;entryDy=0;" parent="1" source="4cjA2mA3PP-OKHL7YIdG-62" target="4cjA2mA3PP-OKHL7YIdG-63" edge="1">
          <mxGeometry width="50" height="50" relative="1" as="geometry">
            <mxPoint x="290" y="310" as="sourcePoint" />
            <mxPoint x="340" y="260" as="targetPoint" />
          </mxGeometry>
        </mxCell>
        <mxCell id="4cjA2mA3PP-OKHL7YIdG-69" value="" style="endArrow=classic;html=1;rounded=0;exitX=1;exitY=0;exitDx=0;exitDy=0;entryX=0;entryY=0.5;entryDx=0;entryDy=0;" parent="1" source="4cjA2mA3PP-OKHL7YIdG-63" target="4cjA2mA3PP-OKHL7YIdG-64" edge="1">
          <mxGeometry width="50" height="50" relative="1" as="geometry">
            <mxPoint x="121" y="414" as="sourcePoint" />
            <mxPoint x="167" y="375" as="targetPoint" />
          </mxGeometry>
        </mxCell>
        <mxCell id="4cjA2mA3PP-OKHL7YIdG-77" value="" style="rounded=0;whiteSpace=wrap;html=1;" parent="1" vertex="1">
          <mxGeometry x="15" y="491" width="375" height="150" as="geometry" />
        </mxCell>
        <mxCell id="4cjA2mA3PP-OKHL7YIdG-78" value="" style="rounded=0;whiteSpace=wrap;html=1;fillColor=#F5F5F5;" parent="1" vertex="1">
          <mxGeometry x="12.5" y="491" width="217.5" height="170" as="geometry" />
        </mxCell>
        <mxCell id="4cjA2mA3PP-OKHL7YIdG-79" value="" style="rounded=0;whiteSpace=wrap;html=1;fillColor=#F5F5F5;" parent="1" vertex="1">
          <mxGeometry x="230" y="491" width="40" height="170" as="geometry" />
        </mxCell>
        <mxCell id="4cjA2mA3PP-OKHL7YIdG-80" value="" style="rounded=0;whiteSpace=wrap;html=1;fillColor=#F5F5F5;" parent="1" vertex="1">
          <mxGeometry x="270" y="491" width="40" height="170" as="geometry" />
        </mxCell>
        <mxCell id="4cjA2mA3PP-OKHL7YIdG-81" value="" style="rounded=0;whiteSpace=wrap;html=1;fillColor=#F5F5F5;" parent="1" vertex="1">
          <mxGeometry x="310" y="491" width="40" height="170" as="geometry" />
        </mxCell>
        <mxCell id="4cjA2mA3PP-OKHL7YIdG-82" value="" style="rounded=0;whiteSpace=wrap;html=1;fillColor=#F5F5F5;" parent="1" vertex="1">
          <mxGeometry x="350" y="491" width="40" height="170" as="geometry" />
        </mxCell>
        <mxCell id="4cjA2mA3PP-OKHL7YIdG-85" value="&lt;font style=&quot;font-size: 9px;&quot;&gt;Principiante&lt;/font&gt;" style="rounded=1;whiteSpace=wrap;html=1;" parent="1" vertex="1">
          <mxGeometry x="30" y="623" width="49" height="20" as="geometry" />
        </mxCell>
        <mxCell id="4cjA2mA3PP-OKHL7YIdG-86" value="&lt;font style=&quot;font-size: 9px;&quot;&gt;Intermedio&lt;/font&gt;" style="rounded=1;whiteSpace=wrap;html=1;" parent="1" vertex="1">
          <mxGeometry x="95.5" y="623" width="49" height="20" as="geometry" />
        </mxCell>
        <mxCell id="4cjA2mA3PP-OKHL7YIdG-87" value="&lt;font style=&quot;font-size: 9px;&quot;&gt;Avanzado&lt;/font&gt;" style="rounded=1;whiteSpace=wrap;html=1;fillColor=#CFCFCF;" parent="1" vertex="1">
          <mxGeometry x="161" y="623" width="49" height="20" as="geometry" />
        </mxCell>
        <mxCell id="4cjA2mA3PP-OKHL7YIdG-92" value="&lt;h1 style=&quot;border-color: var(--border-color); text-align: left;&quot;&gt;Valoraciones&lt;/h1&gt;" style="text;html=1;strokeColor=none;fillColor=none;align=center;verticalAlign=middle;whiteSpace=wrap;rounded=0;" parent="1" vertex="1">
          <mxGeometry x="45" y="700" width="87" height="30" as="geometry" />
        </mxCell>
        <mxCell id="4cjA2mA3PP-OKHL7YIdG-95" value="Escribe la tuya" style="text;html=1;strokeColor=none;fillColor=none;align=center;verticalAlign=middle;whiteSpace=wrap;rounded=0;" parent="1" vertex="1">
          <mxGeometry x="176" y="702" width="92" height="30" as="geometry" />
        </mxCell>
        <mxCell id="4cjA2mA3PP-OKHL7YIdG-96" value="&lt;h1&gt;Heading&lt;/h1&gt;&lt;p&gt;Lorem ipsum dolor sit amet, consectetur adipisicing elit, sed do eiusmod tempor incididunt ut labore et dolore magna aliqua.&lt;/p&gt;" style="text;html=1;strokeColor=none;fillColor=none;spacing=5;spacingTop=-20;whiteSpace=wrap;overflow=hidden;rounded=0;" parent="1" vertex="1">
          <mxGeometry x="25" y="96" width="190" height="120" as="geometry" />
        </mxCell>
        <mxCell id="4cjA2mA3PP-OKHL7YIdG-99" value="" style="verticalLabelPosition=bottom;verticalAlign=top;html=1;shape=mxgraph.basic.star" parent="1" vertex="1">
          <mxGeometry x="83.5" y="834" width="10" height="10" as="geometry" />
        </mxCell>
        <mxCell id="4cjA2mA3PP-OKHL7YIdG-100" value="" style="verticalLabelPosition=bottom;verticalAlign=top;html=1;shape=mxgraph.basic.star" parent="1" vertex="1">
          <mxGeometry x="39" y="834" width="10" height="10" as="geometry" />
        </mxCell>
        <mxCell id="4cjA2mA3PP-OKHL7YIdG-102" value="" style="verticalLabelPosition=bottom;verticalAlign=top;html=1;shape=mxgraph.basic.star" parent="1" vertex="1">
          <mxGeometry x="98" y="834" width="10" height="10" as="geometry" />
        </mxCell>
        <mxCell id="4cjA2mA3PP-OKHL7YIdG-105" value="" style="verticalLabelPosition=bottom;verticalAlign=top;html=1;shape=mxgraph.basic.star" parent="1" vertex="1">
          <mxGeometry x="69" y="834" width="10" height="10" as="geometry" />
        </mxCell>
        <mxCell id="4cjA2mA3PP-OKHL7YIdG-106" value="" style="verticalLabelPosition=bottom;verticalAlign=top;html=1;shape=mxgraph.basic.star" parent="1" vertex="1">
          <mxGeometry x="54" y="834" width="10" height="10" as="geometry" />
        </mxCell>
        <mxCell id="4cjA2mA3PP-OKHL7YIdG-123" value="" style="verticalLabelPosition=bottom;verticalAlign=top;html=1;shape=mxgraph.basic.star" parent="1" vertex="1">
          <mxGeometry x="215" y="834" width="10" height="10" as="geometry" />
        </mxCell>
        <mxCell id="4cjA2mA3PP-OKHL7YIdG-124" value="" style="verticalLabelPosition=bottom;verticalAlign=top;html=1;shape=mxgraph.basic.star" parent="1" vertex="1">
          <mxGeometry x="230" y="834" width="10" height="10" as="geometry" />
        </mxCell>
        <mxCell id="4cjA2mA3PP-OKHL7YIdG-125" value="" style="verticalLabelPosition=bottom;verticalAlign=top;html=1;shape=mxgraph.basic.star" parent="1" vertex="1">
          <mxGeometry x="245" y="834" width="10" height="10" as="geometry" />
        </mxCell>
        <mxCell id="4cjA2mA3PP-OKHL7YIdG-126" value="" style="verticalLabelPosition=bottom;verticalAlign=top;html=1;shape=mxgraph.basic.star" parent="1" vertex="1">
          <mxGeometry x="199.5" y="834" width="10" height="10" as="geometry" />
        </mxCell>
        <mxCell id="4cjA2mA3PP-OKHL7YIdG-127" value="" style="verticalLabelPosition=bottom;verticalAlign=top;html=1;shape=mxgraph.basic.star" parent="1" vertex="1">
          <mxGeometry x="185" y="834" width="10" height="10" as="geometry" />
        </mxCell>
        <mxCell id="4cjA2mA3PP-OKHL7YIdG-128" value="" style="verticalLabelPosition=bottom;verticalAlign=top;html=1;shape=mxgraph.basic.star" parent="1" vertex="1">
          <mxGeometry x="360" y="834" width="10" height="10" as="geometry" />
        </mxCell>
        <mxCell id="4cjA2mA3PP-OKHL7YIdG-129" value="" style="verticalLabelPosition=bottom;verticalAlign=top;html=1;shape=mxgraph.basic.star" parent="1" vertex="1">
          <mxGeometry x="374.75" y="834" width="10" height="10" as="geometry" />
        </mxCell>
        <mxCell id="4cjA2mA3PP-OKHL7YIdG-130" value="" style="verticalLabelPosition=bottom;verticalAlign=top;html=1;shape=mxgraph.basic.star" parent="1" vertex="1">
          <mxGeometry x="345" y="834" width="10" height="10" as="geometry" />
        </mxCell>
        <mxCell id="4cjA2mA3PP-OKHL7YIdG-131" value="" style="verticalLabelPosition=bottom;verticalAlign=top;html=1;shape=mxgraph.basic.star" parent="1" vertex="1">
          <mxGeometry x="330" y="834" width="10" height="10" as="geometry" />
        </mxCell>
        <mxCell id="4cjA2mA3PP-OKHL7YIdG-132" value="" style="verticalLabelPosition=bottom;verticalAlign=top;html=1;shape=mxgraph.basic.star" parent="1" vertex="1">
          <mxGeometry x="389" y="834" width="10" height="10" as="geometry" />
        </mxCell>
        <mxCell id="4cjA2mA3PP-OKHL7YIdG-133" value="&lt;h1&gt;Nombre Deporte&lt;/h1&gt;&lt;p&gt;Lorem ipsum dolor sit amet, consectetur adipisicing elit, sed do eiusmod tempor incididunt ut labore et dolore magna aliqua.&lt;/p&gt;" style="text;html=1;strokeColor=none;fillColor=none;spacing=5;spacingTop=-20;whiteSpace=wrap;overflow=hidden;rounded=0;" parent="1" vertex="1">
          <mxGeometry x="23" y="495" width="200" height="120" as="geometry" />
        </mxCell>
        <mxCell id="4cjA2mA3PP-OKHL7YIdG-134" value="Lorem ipsum dolor sit amet, consectetur adipisicing elit, sed do eiusmod tempor incididunt ut labore et dolore magna aliqua." style="text;html=1;strokeColor=none;fillColor=none;align=center;verticalAlign=middle;whiteSpace=wrap;rounded=0;" parent="1" vertex="1">
          <mxGeometry x="20" y="270" width="190" height="30" as="geometry" />
        </mxCell>
        <mxCell id="4cjA2mA3PP-OKHL7YIdG-135" value="FOTO" style="shape=umlActor;verticalLabelPosition=bottom;verticalAlign=top;html=1;outlineConnect=0;labelBackgroundColor=default;" parent="1" vertex="1">
          <mxGeometry x="320" y="360" width="30" height="60" as="geometry" />
        </mxCell>
        <mxCell id="4cjA2mA3PP-OKHL7YIdG-139" value="" style="rounded=1;whiteSpace=wrap;html=1;shadow=1;arcSize=7;fillColor=#F5F5F5;" parent="1" vertex="1">
          <mxGeometry x="215" y="910" width="170" height="180" as="geometry" />
        </mxCell>
        <mxCell id="4cjA2mA3PP-OKHL7YIdG-141" value="&lt;b&gt;&lt;font style=&quot;font-size: 14px;&quot;&gt;CONTACTANOS&lt;/font&gt;&lt;/b&gt;" style="text;html=1;strokeColor=none;fillColor=none;align=left;verticalAlign=middle;whiteSpace=wrap;rounded=0;" parent="1" vertex="1">
          <mxGeometry x="24" y="920" width="116" height="30" as="geometry" />
        </mxCell>
        <mxCell id="4cjA2mA3PP-OKHL7YIdG-142" value="&lt;b&gt;Nuestro telefono&lt;/b&gt;" style="text;html=1;strokeColor=none;fillColor=none;align=left;verticalAlign=middle;whiteSpace=wrap;rounded=0;" parent="1" vertex="1">
          <mxGeometry x="24" y="950" width="106" height="30" as="geometry" />
        </mxCell>
        <mxCell id="4cjA2mA3PP-OKHL7YIdG-143" value="(+34) 630 199 314" style="text;html=1;strokeColor=none;fillColor=none;align=left;verticalAlign=middle;whiteSpace=wrap;rounded=0;" parent="1" vertex="1">
          <mxGeometry x="23" y="966" width="147" height="30" as="geometry" />
        </mxCell>
        <mxCell id="4cjA2mA3PP-OKHL7YIdG-144" value="&lt;b&gt;Nuestro email&lt;/b&gt;" style="text;html=1;strokeColor=none;fillColor=none;align=left;verticalAlign=middle;whiteSpace=wrap;rounded=0;" parent="1" vertex="1">
          <mxGeometry x="25" y="996" width="106" height="30" as="geometry" />
        </mxCell>
        <mxCell id="4cjA2mA3PP-OKHL7YIdG-145" value="egym@gmail.com" style="text;html=1;strokeColor=none;fillColor=none;align=left;verticalAlign=middle;whiteSpace=wrap;rounded=0;" parent="1" vertex="1">
          <mxGeometry x="24" y="1010" width="147" height="30" as="geometry" />
        </mxCell>
        <mxCell id="4cjA2mA3PP-OKHL7YIdG-146" value="" style="endArrow=none;html=1;rounded=0;entryX=0;entryY=0.75;entryDx=0;entryDy=0;" parent="1" edge="1">
          <mxGeometry width="50" height="50" relative="1" as="geometry">
            <mxPoint x="170" y="990" as="sourcePoint" />
            <mxPoint x="23" y="989.5" as="targetPoint" />
          </mxGeometry>
        </mxCell>
        <mxCell id="4cjA2mA3PP-OKHL7YIdG-147" value="" style="endArrow=none;html=1;rounded=0;entryX=0;entryY=0.75;entryDx=0;entryDy=0;" parent="1" edge="1">
          <mxGeometry width="50" height="50" relative="1" as="geometry">
            <mxPoint x="170" y="1034" as="sourcePoint" />
            <mxPoint x="23" y="1034" as="targetPoint" />
          </mxGeometry>
        </mxCell>
        <mxCell id="4cjA2mA3PP-OKHL7YIdG-148" value="&lt;b&gt;&lt;font style=&quot;font-size: 14px;&quot;&gt;PROPUESTAS&lt;/font&gt;&lt;/b&gt;" style="text;html=1;strokeColor=none;fillColor=none;align=left;verticalAlign=middle;whiteSpace=wrap;rounded=0;" parent="1" vertex="1">
          <mxGeometry x="252" y="920" width="103" height="30" as="geometry" />
        </mxCell>
        <mxCell id="4cjA2mA3PP-OKHL7YIdG-152" value="" style="rounded=0;whiteSpace=wrap;html=1;" parent="1" vertex="1">
          <mxGeometry x="240" y="951" width="120" height="89" as="geometry" />
        </mxCell>
        <mxCell id="4cjA2mA3PP-OKHL7YIdG-153" value="Comenta" style="text;html=1;strokeColor=none;fillColor=none;align=left;verticalAlign=middle;whiteSpace=wrap;rounded=0;" parent="1" vertex="1">
          <mxGeometry x="244" y="950" width="92" height="30" as="geometry" />
        </mxCell>
        <mxCell id="MqZ4NfJ4OhhZlp0Pb9Os-1" value="Enviar" style="rounded=1;whiteSpace=wrap;html=1;fillColor=#A8A8A8;" parent="1" vertex="1">
          <mxGeometry x="274" y="1050" width="60" height="20" as="geometry" />
        </mxCell>
        <mxCell id="L-az5f-fQx2wf3-xbMq_-1" value="" style="rounded=0;whiteSpace=wrap;html=1;fillColor=#D9D9D9;" parent="1" vertex="1">
          <mxGeometry y="1097" width="400" height="93" as="geometry" />
        </mxCell>
        <mxCell id="L-az5f-fQx2wf3-xbMq_-2" value="EGym" style="text;html=1;strokeColor=none;fillColor=none;align=center;verticalAlign=middle;whiteSpace=wrap;rounded=0;fontSize=16;" parent="1" vertex="1">
          <mxGeometry x="147.5" y="1109" width="110" height="30" as="geometry" />
        </mxCell>
        <mxCell id="L-az5f-fQx2wf3-xbMq_-3" value="" style="endArrow=none;html=1;rounded=0;fontSize=12;startSize=8;endSize=8;curved=1;entryX=1;entryY=1;entryDx=0;entryDy=0;exitX=0;exitY=1;exitDx=0;exitDy=0;" parent="1" source="L-az5f-fQx2wf3-xbMq_-2" target="L-az5f-fQx2wf3-xbMq_-2" edge="1">
          <mxGeometry width="50" height="50" relative="1" as="geometry">
            <mxPoint x="170" y="1197" as="sourcePoint" />
            <mxPoint x="220" y="1147" as="targetPoint" />
          </mxGeometry>
        </mxCell>
        <mxCell id="L-az5f-fQx2wf3-xbMq_-4" value="Ln" style="ellipse;whiteSpace=wrap;html=1;aspect=fixed;fontSize=16;" parent="1" vertex="1">
          <mxGeometry x="192" y="1150" width="25" height="25" as="geometry" />
        </mxCell>
        <mxCell id="L-az5f-fQx2wf3-xbMq_-5" value="Tw" style="ellipse;whiteSpace=wrap;html=1;aspect=fixed;fontSize=16;" parent="1" vertex="1">
          <mxGeometry x="232.5" y="1150" width="25" height="25" as="geometry" />
        </mxCell>
        <mxCell id="L-az5f-fQx2wf3-xbMq_-6" value="Fb" style="ellipse;whiteSpace=wrap;html=1;aspect=fixed;fontSize=16;" parent="1" vertex="1">
          <mxGeometry x="151" y="1150" width="25" height="25" as="geometry" />
        </mxCell>
        <mxCell id="L-az5f-fQx2wf3-xbMq_-7" value="Yt" style="ellipse;whiteSpace=wrap;html=1;aspect=fixed;fontSize=16;" parent="1" vertex="1">
          <mxGeometry x="272.75" y="1150" width="25" height="25" as="geometry" />
        </mxCell>
        <mxCell id="L-az5f-fQx2wf3-xbMq_-8" value="In" style="ellipse;whiteSpace=wrap;html=1;aspect=fixed;fontSize=16;" parent="1" vertex="1">
          <mxGeometry x="110" y="1150" width="25" height="25" as="geometry" />
        </mxCell>
        <mxCell id="qV_8FAgzr4LOZE6ixqSq-7" value="" style="shape=umlActor;verticalLabelPosition=bottom;verticalAlign=top;html=1;outlineConnect=0;" parent="1" vertex="1">
          <mxGeometry x="30" y="756" width="8" height="16" as="geometry" />
        </mxCell>
        <mxCell id="qV_8FAgzr4LOZE6ixqSq-9" value="" style="shape=umlActor;verticalLabelPosition=bottom;verticalAlign=top;html=1;outlineConnect=0;" parent="1" vertex="1">
          <mxGeometry x="176" y="756" width="8" height="16" as="geometry" />
        </mxCell>
        <mxCell id="qV_8FAgzr4LOZE6ixqSq-10" value="" style="shape=umlActor;verticalLabelPosition=bottom;verticalAlign=top;html=1;outlineConnect=0;" parent="1" vertex="1">
          <mxGeometry x="321" y="756" width="8" height="16" as="geometry" />
        </mxCell>
        <mxCell id="qV_8FAgzr4LOZE6ixqSq-15" value="" style="rounded=0;whiteSpace=wrap;html=1;fillColor=#B3B3B3;" parent="1" vertex="1">
          <mxGeometry y="1190" width="400" height="23" as="geometry" />
        </mxCell>
        <mxCell id="qV_8FAgzr4LOZE6ixqSq-16" value="&lt;font size=&quot;1&quot;&gt;Miquel Rodrigo Navarro | @Copyright | www.egym.com | v.01&lt;/font&gt;" style="text;html=1;strokeColor=none;fillColor=none;align=left;verticalAlign=middle;whiteSpace=wrap;rounded=0;" parent="1" vertex="1">
          <mxGeometry x="2.5" y="1187" width="307.5" height="30" as="geometry" />
        </mxCell>
        <mxCell id="qV_8FAgzr4LOZE6ixqSq-19" value="" style="shape=document;whiteSpace=wrap;html=1;boundedLbl=1;fillColor=#FAFAFA;" parent="1" vertex="1">
          <mxGeometry width="400" height="101" as="geometry" />
        </mxCell>
        <mxCell id="qV_8FAgzr4LOZE6ixqSq-31" value="&lt;font style=&quot;font-size: 28px;&quot;&gt;&lt;b&gt;e&lt;/b&gt;Gym&lt;/font&gt;" style="text;html=1;strokeColor=none;fillColor=none;align=center;verticalAlign=middle;whiteSpace=wrap;rounded=0;fontSize=16;" parent="1" vertex="1">
          <mxGeometry x="170" y="10" width="60" height="40" as="geometry" />
        </mxCell>
        <mxCell id="qV_8FAgzr4LOZE6ixqSq-32" value="&lt;font style=&quot;font-size: 11px;&quot;&gt;calculadora&lt;/font&gt;" style="text;html=1;strokeColor=none;fillColor=none;align=center;verticalAlign=middle;whiteSpace=wrap;rounded=0;fontSize=16;" parent="1" vertex="1">
          <mxGeometry x="17" y="52" width="60" height="30" as="geometry" />
        </mxCell>
        <mxCell id="qV_8FAgzr4LOZE6ixqSq-33" value="&lt;span style=&quot;font-size: 11px;&quot;&gt;deporte&lt;/span&gt;" style="text;html=1;strokeColor=none;fillColor=none;align=center;verticalAlign=middle;whiteSpace=wrap;rounded=0;fontSize=16;" parent="1" vertex="1">
          <mxGeometry x="73.5" y="52" width="60" height="30" as="geometry" />
        </mxCell>
        <mxCell id="qV_8FAgzr4LOZE6ixqSq-34" value="&lt;font style=&quot;font-size: 10px;&quot;&gt;Idioma&lt;/font&gt;" style="text;html=1;strokeColor=none;fillColor=none;align=center;verticalAlign=middle;whiteSpace=wrap;rounded=0;fontSize=16;" parent="1" vertex="1">
          <mxGeometry x="345" y="52" width="60" height="30" as="geometry" />
        </mxCell>
        <mxCell id="qV_8FAgzr4LOZE6ixqSq-35" value="" style="triangle;whiteSpace=wrap;html=1;fontSize=16;rotation=90;fillColor=#000000;" parent="1" vertex="1">
          <mxGeometry x="392.27" y="68.74" width="1.59" height="2.63" as="geometry" />
        </mxCell>
        <mxCell id="qV_8FAgzr4LOZE6ixqSq-36" value="" style="triangle;whiteSpace=wrap;html=1;fontSize=16;rotation=90;fillColor=#000000;" parent="1" vertex="1">
          <mxGeometry x="124.67999999999998" y="68.18" width="2.32" height="2.63" as="geometry" />
        </mxCell>
        <mxCell id="qV_8FAgzr4LOZE6ixqSq-37" value="&lt;font style=&quot;font-size: 9px;&quot;&gt;Usuario&lt;/font&gt;" style="text;html=1;strokeColor=none;fillColor=none;align=center;verticalAlign=middle;whiteSpace=wrap;rounded=0;fontSize=16;" parent="1" vertex="1">
          <mxGeometry x="302" y="23" width="60" height="30" as="geometry" />
        </mxCell>
        <mxCell id="qV_8FAgzr4LOZE6ixqSq-38" value="" style="ellipse;whiteSpace=wrap;html=1;aspect=fixed;" parent="1" vertex="1">
          <mxGeometry x="314.5" y="52" width="35" height="35" as="geometry" />
        </mxCell>
        <mxCell id="qV_8FAgzr4LOZE6ixqSq-39" value="&lt;font style=&quot;font-size: 11px;&quot;&gt;mapa web&lt;/font&gt;" style="text;html=1;strokeColor=none;fillColor=none;align=center;verticalAlign=middle;whiteSpace=wrap;rounded=0;fontSize=16;" parent="1" vertex="1">
          <mxGeometry x="135.5" y="52" width="60" height="30" as="geometry" />
        </mxCell>
        <mxCell id="qV_8FAgzr4LOZE6ixqSq-40" value="&lt;font style=&quot;font-size: 11px;&quot;&gt;accesibilidad&lt;/font&gt;" style="text;html=1;strokeColor=none;fillColor=none;align=center;verticalAlign=middle;whiteSpace=wrap;rounded=0;fontSize=16;" parent="1" vertex="1">
          <mxGeometry x="201" y="52" width="60" height="30" as="geometry" />
        </mxCell>
        <mxCell id="qV_8FAgzr4LOZE6ixqSq-41" value="" style="shape=umlActor;verticalLabelPosition=bottom;verticalAlign=top;html=1;outlineConnect=0;" parent="1" vertex="1">
          <mxGeometry x="326.5" y="56.989999999999995" width="11" height="25" as="geometry" />
        </mxCell>
        <mxCell id="Zo-2WZrMfFR64cKHUAiM-2" value="" style="rounded=0;whiteSpace=wrap;html=1;gradientColor=#e3e3e3;gradientDirection=radial;" parent="1" vertex="1">
          <mxGeometry x="440.36" y="70" width="400" height="340" as="geometry" />
        </mxCell>
        <mxCell id="Zo-2WZrMfFR64cKHUAiM-5" value="" style="shape=document;whiteSpace=wrap;html=1;boundedLbl=1;fillColor=#FAFAFA;" parent="1" vertex="1">
          <mxGeometry x="440.36" width="400" height="101" as="geometry" />
        </mxCell>
        <mxCell id="Zo-2WZrMfFR64cKHUAiM-6" value="&lt;font style=&quot;font-size: 28px;&quot;&gt;&lt;b&gt;e&lt;/b&gt;Gym&lt;/font&gt;" style="text;html=1;strokeColor=none;fillColor=none;align=center;verticalAlign=middle;whiteSpace=wrap;rounded=0;fontSize=16;" parent="1" vertex="1">
          <mxGeometry x="595.36" y="10" width="90" height="40" as="geometry" />
        </mxCell>
        <mxCell id="Zo-2WZrMfFR64cKHUAiM-7" value="&lt;font style=&quot;font-size: 11px;&quot;&gt;calculadora&lt;/font&gt;" style="text;html=1;strokeColor=none;fillColor=none;align=center;verticalAlign=middle;whiteSpace=wrap;rounded=0;fontSize=16;" parent="1" vertex="1">
          <mxGeometry x="457.36" y="52" width="60" height="30" as="geometry" />
        </mxCell>
        <mxCell id="Zo-2WZrMfFR64cKHUAiM-8" value="&lt;span style=&quot;font-size: 11px;&quot;&gt;deporte&lt;/span&gt;" style="text;html=1;strokeColor=none;fillColor=none;align=center;verticalAlign=middle;whiteSpace=wrap;rounded=0;fontSize=16;" parent="1" vertex="1">
          <mxGeometry x="513.86" y="52" width="60" height="30" as="geometry" />
        </mxCell>
        <mxCell id="Zo-2WZrMfFR64cKHUAiM-9" value="&lt;font style=&quot;font-size: 10px;&quot;&gt;Idioma&lt;/font&gt;" style="text;html=1;strokeColor=none;fillColor=none;align=center;verticalAlign=middle;whiteSpace=wrap;rounded=0;fontSize=16;" parent="1" vertex="1">
          <mxGeometry x="785.36" y="52" width="60" height="30" as="geometry" />
        </mxCell>
        <mxCell id="Zo-2WZrMfFR64cKHUAiM-10" value="" style="triangle;whiteSpace=wrap;html=1;fontSize=16;rotation=90;fillColor=#000000;" parent="1" vertex="1">
          <mxGeometry x="832.63" y="68.74000000000001" width="1.59" height="2.63" as="geometry" />
        </mxCell>
        <mxCell id="Zo-2WZrMfFR64cKHUAiM-11" value="" style="triangle;whiteSpace=wrap;html=1;fontSize=16;rotation=90;fillColor=#000000;" parent="1" vertex="1">
          <mxGeometry x="565.04" y="68.18" width="2.32" height="2.63" as="geometry" />
        </mxCell>
        <mxCell id="Zo-2WZrMfFR64cKHUAiM-12" value="&lt;font style=&quot;font-size: 9px;&quot;&gt;Usuario&lt;/font&gt;" style="text;html=1;strokeColor=none;fillColor=none;align=center;verticalAlign=middle;whiteSpace=wrap;rounded=0;fontSize=16;" parent="1" vertex="1">
          <mxGeometry x="742.36" y="23" width="60" height="30" as="geometry" />
        </mxCell>
        <mxCell id="Zo-2WZrMfFR64cKHUAiM-13" value="" style="ellipse;whiteSpace=wrap;html=1;aspect=fixed;" parent="1" vertex="1">
          <mxGeometry x="754.86" y="52" width="35" height="35" as="geometry" />
        </mxCell>
        <mxCell id="Zo-2WZrMfFR64cKHUAiM-14" value="&lt;font style=&quot;font-size: 11px;&quot;&gt;mapa web&lt;/font&gt;" style="text;html=1;strokeColor=none;fillColor=none;align=center;verticalAlign=middle;whiteSpace=wrap;rounded=0;fontSize=16;" parent="1" vertex="1">
          <mxGeometry x="574.86" y="51" width="55.5" height="32" as="geometry" />
        </mxCell>
        <mxCell id="Zo-2WZrMfFR64cKHUAiM-15" value="&lt;font style=&quot;font-size: 11px;&quot;&gt;accesibilidad&lt;/font&gt;" style="text;html=1;strokeColor=none;fillColor=none;align=center;verticalAlign=middle;whiteSpace=wrap;rounded=0;fontSize=16;" parent="1" vertex="1">
          <mxGeometry x="641.36" y="52" width="60" height="30" as="geometry" />
        </mxCell>
        <mxCell id="Zo-2WZrMfFR64cKHUAiM-16" value="" style="shape=umlActor;verticalLabelPosition=bottom;verticalAlign=top;html=1;outlineConnect=0;" parent="1" vertex="1">
          <mxGeometry x="766.86" y="56.99000000000001" width="11" height="25" as="geometry" />
        </mxCell>
        <mxCell id="Zo-2WZrMfFR64cKHUAiM-17" value="" style="rounded=1;whiteSpace=wrap;html=1;shadow=1;fontColor=#999999;fillColor=#BABABA;collapsible=0;dropTarget=0;container=0;backgroundOutline=0;movableLabel=0;autosize=0;fixedWidth=0;resizeWidth=1;resizeHeight=1;" parent="1" vertex="1">
          <mxGeometry x="537.86" y="150" width="205" height="220" as="geometry" />
        </mxCell>
        <mxCell id="Zo-2WZrMfFR64cKHUAiM-19" value="" style="ellipse;whiteSpace=wrap;html=1;aspect=fixed;" parent="1" vertex="1">
          <mxGeometry x="616.11" y="156.5" width="47.5" height="47.5" as="geometry" />
        </mxCell>
        <mxCell id="AVBnmvZ9WdcLxyfWrNlu-1" value="" style="rounded=1;whiteSpace=wrap;html=1;shadow=0;arcSize=19;" parent="1" vertex="1">
          <mxGeometry x="538.36" y="210" width="205" height="160" as="geometry" />
        </mxCell>
        <mxCell id="AVBnmvZ9WdcLxyfWrNlu-2" value="" style="rounded=1;whiteSpace=wrap;html=1;shadow=0.5;arcSize=50;fillColor=#000000000000000;" parent="1" vertex="1">
          <mxGeometry x="646.86" y="342" width="75" height="20" as="geometry" />
        </mxCell>
        <mxCell id="AVBnmvZ9WdcLxyfWrNlu-3" value="Nombre" style="text;html=1;strokeColor=none;fillColor=none;align=left;verticalAlign=middle;whiteSpace=wrap;rounded=0;horizontal=1;fontSize=9;" parent="1" vertex="1">
          <mxGeometry x="556.61" y="235" width="60" height="10" as="geometry" />
        </mxCell>
        <mxCell id="AVBnmvZ9WdcLxyfWrNlu-4" value="1Âº Apellido" style="text;html=1;strokeColor=none;fillColor=none;align=left;verticalAlign=middle;whiteSpace=wrap;rounded=0;fontSize=9;" parent="1" vertex="1">
          <mxGeometry x="556.61" y="260" width="73.75" height="10" as="geometry" />
        </mxCell>
        <mxCell id="AVBnmvZ9WdcLxyfWrNlu-5" value="BOXEO" style="text;html=1;strokeColor=none;fillColor=none;align=center;verticalAlign=middle;whiteSpace=wrap;rounded=0;horizontal=0;fontSize=18;fontStyle=1" parent="1" vertex="1">
          <mxGeometry x="230" y="490" width="40" height="170" as="geometry" />
        </mxCell>
        <mxCell id="AVBnmvZ9WdcLxyfWrNlu-6" value="NATACIÃN" style="text;html=1;strokeColor=none;fillColor=none;align=center;verticalAlign=middle;whiteSpace=wrap;rounded=0;horizontal=0;fontSize=18;fontStyle=1" parent="1" vertex="1">
          <mxGeometry x="270" y="490" width="40" height="170" as="geometry" />
        </mxCell>
        <mxCell id="AVBnmvZ9WdcLxyfWrNlu-7" value="CROSSFIT" style="text;html=1;strokeColor=none;fillColor=none;align=center;verticalAlign=middle;whiteSpace=wrap;rounded=0;horizontal=0;fontSize=18;fontStyle=1" parent="1" vertex="1">
          <mxGeometry x="310" y="490" width="40" height="170" as="geometry" />
        </mxCell>
        <mxCell id="AVBnmvZ9WdcLxyfWrNlu-8" value="CYCLING" style="text;html=1;strokeColor=none;fillColor=none;align=center;verticalAlign=middle;whiteSpace=wrap;rounded=0;horizontal=0;fontSize=18;fontStyle=1" parent="1" vertex="1">
          <mxGeometry x="350" y="490" width="40" height="170" as="geometry" />
        </mxCell>
        <mxCell id="AVBnmvZ9WdcLxyfWrNlu-9" value="2Âº Apellido" style="text;html=1;strokeColor=none;fillColor=none;align=left;verticalAlign=middle;whiteSpace=wrap;rounded=0;fontSize=9;" parent="1" vertex="1">
          <mxGeometry x="556.61" y="285" width="73.75" height="10" as="geometry" />
        </mxCell>
        <mxCell id="AVBnmvZ9WdcLxyfWrNlu-10" value="Mail" style="text;html=1;strokeColor=none;fillColor=none;align=left;verticalAlign=middle;whiteSpace=wrap;rounded=0;fontSize=9;" parent="1" vertex="1">
          <mxGeometry x="556.61" y="310" width="73.75" height="10" as="geometry" />
        </mxCell>
        <mxCell id="AVBnmvZ9WdcLxyfWrNlu-11" value="ContraseÃ±a" style="text;html=1;strokeColor=none;fillColor=none;align=left;verticalAlign=middle;whiteSpace=wrap;rounded=0;fontSize=9;" parent="1" vertex="1">
          <mxGeometry x="655.24" y="235" width="73.75" height="10" as="geometry" />
        </mxCell>
        <mxCell id="AVBnmvZ9WdcLxyfWrNlu-12" value="Rep contraseÃ±a" style="text;html=1;strokeColor=none;fillColor=none;align=left;verticalAlign=middle;whiteSpace=wrap;rounded=0;fontSize=9;" parent="1" vertex="1">
          <mxGeometry x="655.24" y="260" width="79" height="10" as="geometry" />
        </mxCell>
        <mxCell id="AVBnmvZ9WdcLxyfWrNlu-13" value="IBAN" style="text;html=1;strokeColor=none;fillColor=none;align=left;verticalAlign=middle;whiteSpace=wrap;rounded=0;fontSize=9;" parent="1" vertex="1">
          <mxGeometry x="657.86" y="285" width="79" height="10" as="geometry" />
        </mxCell>
        <mxCell id="AVBnmvZ9WdcLxyfWrNlu-17" value="Foto" style="text;html=1;strokeColor=none;fillColor=none;align=center;verticalAlign=middle;whiteSpace=wrap;rounded=0;horizontal=1;fontSize=9;" parent="1" vertex="1">
          <mxGeometry x="622.86" y="165.25" width="35" height="30" as="geometry" />
        </mxCell>
        <mxCell id="AVBnmvZ9WdcLxyfWrNlu-23" value="" style="endArrow=none;html=1;rounded=0;exitX=0;exitY=1;exitDx=0;exitDy=0;" parent="1" edge="1">
          <mxGeometry width="50" height="50" relative="1" as="geometry">
            <mxPoint x="657.86" y="270" as="sourcePoint" />
            <mxPoint x="730.36" y="270" as="targetPoint" />
          </mxGeometry>
        </mxCell>
        <mxCell id="AVBnmvZ9WdcLxyfWrNlu-24" value="" style="endArrow=none;html=1;rounded=0;exitX=0;exitY=1;exitDx=0;exitDy=0;" parent="1" edge="1">
          <mxGeometry width="50" height="50" relative="1" as="geometry">
            <mxPoint x="657.86" y="295" as="sourcePoint" />
            <mxPoint x="730.36" y="295" as="targetPoint" />
          </mxGeometry>
        </mxCell>
        <mxCell id="AVBnmvZ9WdcLxyfWrNlu-25" value="" style="endArrow=none;html=1;rounded=0;exitX=0;exitY=1;exitDx=0;exitDy=0;" parent="1" edge="1">
          <mxGeometry width="50" height="50" relative="1" as="geometry">
            <mxPoint x="657.74" y="245" as="sourcePoint" />
            <mxPoint x="730.36" y="245" as="targetPoint" />
          </mxGeometry>
        </mxCell>
        <mxCell id="AVBnmvZ9WdcLxyfWrNlu-26" value="" style="endArrow=none;html=1;rounded=0;exitX=0;exitY=1;exitDx=0;exitDy=0;" parent="1" edge="1">
          <mxGeometry width="50" height="50" relative="1" as="geometry">
            <mxPoint x="556.61" y="245" as="sourcePoint" />
            <mxPoint x="620.36" y="245" as="targetPoint" />
          </mxGeometry>
        </mxCell>
        <mxCell id="AVBnmvZ9WdcLxyfWrNlu-27" value="" style="endArrow=none;html=1;rounded=0;exitX=0;exitY=1;exitDx=0;exitDy=0;" parent="1" edge="1">
          <mxGeometry width="50" height="50" relative="1" as="geometry">
            <mxPoint x="556.61" y="270" as="sourcePoint" />
            <mxPoint x="620.36" y="270" as="targetPoint" />
          </mxGeometry>
        </mxCell>
        <mxCell id="AVBnmvZ9WdcLxyfWrNlu-28" value="" style="endArrow=none;html=1;rounded=0;exitX=0;exitY=1;exitDx=0;exitDy=0;" parent="1" edge="1">
          <mxGeometry width="50" height="50" relative="1" as="geometry">
            <mxPoint x="556.61" y="295" as="sourcePoint" />
            <mxPoint x="620.36" y="295" as="targetPoint" />
          </mxGeometry>
        </mxCell>
        <mxCell id="AVBnmvZ9WdcLxyfWrNlu-29" value="" style="endArrow=none;html=1;rounded=0;exitX=0;exitY=1;exitDx=0;exitDy=0;" parent="1" edge="1">
          <mxGeometry width="50" height="50" relative="1" as="geometry">
            <mxPoint x="556.61" y="320" as="sourcePoint" />
            <mxPoint x="620.36" y="320" as="targetPoint" />
          </mxGeometry>
        </mxCell>
        <mxCell id="AVBnmvZ9WdcLxyfWrNlu-30" value="" style="rounded=1;whiteSpace=wrap;html=1;shadow=0.5;arcSize=50;fillColor=#EDEDED;" parent="1" vertex="1">
          <mxGeometry x="645.36" y="341" width="75" height="20" as="geometry" />
        </mxCell>
        <mxCell id="AVBnmvZ9WdcLxyfWrNlu-31" value="SUSCRIBIRSE" style="text;html=1;strokeColor=none;fillColor=none;align=center;verticalAlign=middle;whiteSpace=wrap;rounded=0;fontSize=9;fontStyle=1" parent="1" vertex="1">
          <mxGeometry x="642.86" y="346" width="79" height="10" as="geometry" />
        </mxCell>
        <mxCell id="AVBnmvZ9WdcLxyfWrNlu-32" value="" style="rounded=0;whiteSpace=wrap;html=1;gradientColor=#e3e3e3;gradientDirection=radial;" parent="1" vertex="1">
          <mxGeometry x="878" y="36" width="400" height="344" as="geometry" />
        </mxCell>
        <mxCell id="AVBnmvZ9WdcLxyfWrNlu-33" value="" style="shape=document;whiteSpace=wrap;html=1;boundedLbl=1;fillColor=#FAFAFA;" parent="1" vertex="1">
          <mxGeometry x="878" width="400" height="101" as="geometry" />
        </mxCell>
        <mxCell id="AVBnmvZ9WdcLxyfWrNlu-34" value="&lt;font style=&quot;font-size: 28px;&quot;&gt;&lt;b&gt;e&lt;/b&gt;Gym&lt;/font&gt;" style="text;html=1;strokeColor=none;fillColor=none;align=center;verticalAlign=middle;whiteSpace=wrap;rounded=0;fontSize=16;" parent="1" vertex="1">
          <mxGeometry x="1033" y="10" width="90" height="40" as="geometry" />
        </mxCell>
        <mxCell id="AVBnmvZ9WdcLxyfWrNlu-35" value="&lt;font style=&quot;font-size: 11px;&quot;&gt;calculadora&lt;/font&gt;" style="text;html=1;strokeColor=none;fillColor=none;align=center;verticalAlign=middle;whiteSpace=wrap;rounded=0;fontSize=16;" parent="1" vertex="1">
          <mxGeometry x="895" y="52" width="60" height="30" as="geometry" />
        </mxCell>
        <mxCell id="AVBnmvZ9WdcLxyfWrNlu-36" value="&lt;span style=&quot;font-size: 11px;&quot;&gt;deporte&lt;/span&gt;" style="text;html=1;strokeColor=none;fillColor=none;align=center;verticalAlign=middle;whiteSpace=wrap;rounded=0;fontSize=16;" parent="1" vertex="1">
          <mxGeometry x="951.5" y="52" width="60" height="30" as="geometry" />
        </mxCell>
        <mxCell id="AVBnmvZ9WdcLxyfWrNlu-37" value="&lt;font style=&quot;font-size: 10px;&quot;&gt;Idioma&lt;/font&gt;" style="text;html=1;strokeColor=none;fillColor=none;align=center;verticalAlign=middle;whiteSpace=wrap;rounded=0;fontSize=16;" parent="1" vertex="1">
          <mxGeometry x="1223" y="52" width="60" height="30" as="geometry" />
        </mxCell>
        <mxCell id="AVBnmvZ9WdcLxyfWrNlu-38" value="" style="triangle;whiteSpace=wrap;html=1;fontSize=16;rotation=90;fillColor=#000000;" parent="1" vertex="1">
          <mxGeometry x="1270.27" y="68.74000000000001" width="1.59" height="2.63" as="geometry" />
        </mxCell>
        <mxCell id="AVBnmvZ9WdcLxyfWrNlu-39" value="" style="triangle;whiteSpace=wrap;html=1;fontSize=16;rotation=90;fillColor=#000000;" parent="1" vertex="1">
          <mxGeometry x="1002.6799999999998" y="68.18" width="2.32" height="2.63" as="geometry" />
        </mxCell>
        <mxCell id="AVBnmvZ9WdcLxyfWrNlu-40" value="&lt;font style=&quot;font-size: 9px;&quot;&gt;Usuario&lt;/font&gt;" style="text;html=1;strokeColor=none;fillColor=none;align=center;verticalAlign=middle;whiteSpace=wrap;rounded=0;fontSize=16;" parent="1" vertex="1">
          <mxGeometry x="1180" y="23" width="60" height="30" as="geometry" />
        </mxCell>
        <mxCell id="AVBnmvZ9WdcLxyfWrNlu-41" value="" style="ellipse;whiteSpace=wrap;html=1;aspect=fixed;" parent="1" vertex="1">
          <mxGeometry x="1192.5" y="52" width="35" height="35" as="geometry" />
        </mxCell>
        <mxCell id="AVBnmvZ9WdcLxyfWrNlu-42" value="&lt;font style=&quot;font-size: 11px;&quot;&gt;mapa web&lt;/font&gt;" style="text;html=1;strokeColor=none;fillColor=none;align=center;verticalAlign=middle;whiteSpace=wrap;rounded=0;fontSize=16;" parent="1" vertex="1">
          <mxGeometry x="1012.5" y="50" width="55.5" height="32" as="geometry" />
        </mxCell>
        <mxCell id="AVBnmvZ9WdcLxyfWrNlu-43" value="&lt;font style=&quot;font-size: 11px;&quot;&gt;accesibilidad&lt;/font&gt;" style="text;html=1;strokeColor=none;fillColor=none;align=center;verticalAlign=middle;whiteSpace=wrap;rounded=0;fontSize=16;" parent="1" vertex="1">
          <mxGeometry x="1079" y="51" width="60" height="30" as="geometry" />
        </mxCell>
        <mxCell id="AVBnmvZ9WdcLxyfWrNlu-44" value="" style="shape=umlActor;verticalLabelPosition=bottom;verticalAlign=top;html=1;outlineConnect=0;" parent="1" vertex="1">
          <mxGeometry x="1204.5" y="56.99000000000001" width="11" height="25" as="geometry" />
        </mxCell>
        <mxCell id="AVBnmvZ9WdcLxyfWrNlu-45" value="" style="rounded=1;whiteSpace=wrap;html=1;shadow=1;fontColor=#999999;fillColor=#BABABA;collapsible=0;dropTarget=0;container=0;backgroundOutline=0;movableLabel=0;autosize=0;fixedWidth=0;resizeWidth=1;resizeHeight=1;" parent="1" vertex="1">
          <mxGeometry x="975.5" y="147" width="205" height="190" as="geometry" />
        </mxCell>
        <mxCell id="AVBnmvZ9WdcLxyfWrNlu-46" value="" style="ellipse;whiteSpace=wrap;html=1;aspect=fixed;" parent="1" vertex="1">
          <mxGeometry x="1053.75" y="155.5" width="47.5" height="47.5" as="geometry" />
        </mxCell>
        <mxCell id="AVBnmvZ9WdcLxyfWrNlu-47" value="" style="rounded=1;whiteSpace=wrap;html=1;shadow=0;arcSize=22;" parent="1" vertex="1">
          <mxGeometry x="975" y="207" width="205" height="130" as="geometry" />
        </mxCell>
        <mxCell id="AVBnmvZ9WdcLxyfWrNlu-48" value="" style="rounded=1;whiteSpace=wrap;html=1;shadow=0.5;arcSize=50;fillColor=#000000000000000;" parent="1" vertex="1">
          <mxGeometry x="1043.5" y="308" width="75" height="20" as="geometry" />
        </mxCell>
        <mxCell id="AVBnmvZ9WdcLxyfWrNlu-52" value="Mail" style="text;html=1;strokeColor=none;fillColor=none;align=center;verticalAlign=middle;whiteSpace=wrap;rounded=0;fontSize=9;" parent="1" vertex="1">
          <mxGeometry x="1040.62" y="235" width="73.75" height="10" as="geometry" />
        </mxCell>
        <mxCell id="AVBnmvZ9WdcLxyfWrNlu-56" value="Foto" style="text;html=1;strokeColor=none;fillColor=none;align=center;verticalAlign=middle;whiteSpace=wrap;rounded=0;horizontal=1;fontSize=9;" parent="1" vertex="1">
          <mxGeometry x="1060.5" y="164.25" width="35" height="30" as="geometry" />
        </mxCell>
        <mxCell id="AVBnmvZ9WdcLxyfWrNlu-64" value="" style="rounded=1;whiteSpace=wrap;html=1;shadow=0.5;arcSize=50;fillColor=#EDEDED;" parent="1" vertex="1">
          <mxGeometry x="1042" y="307" width="75" height="20" as="geometry" />
        </mxCell>
        <mxCell id="AVBnmvZ9WdcLxyfWrNlu-65" value="INICIAR" style="text;html=1;strokeColor=none;fillColor=none;align=center;verticalAlign=middle;whiteSpace=wrap;rounded=0;fontSize=9;fontStyle=1" parent="1" vertex="1">
          <mxGeometry x="1038.5" y="312" width="79" height="10" as="geometry" />
        </mxCell>
        <mxCell id="AVBnmvZ9WdcLxyfWrNlu-67" value="ContraseÃ±a" style="text;html=1;strokeColor=none;fillColor=none;align=center;verticalAlign=middle;whiteSpace=wrap;rounded=0;fontSize=9;" parent="1" vertex="1">
          <mxGeometry x="1041.13" y="260" width="73.75" height="10" as="geometry" />
        </mxCell>
        <mxCell id="AVBnmvZ9WdcLxyfWrNlu-69" value="" style="endArrow=none;html=1;rounded=0;entryX=0;entryY=1;entryDx=0;entryDy=0;exitX=1;exitY=1;exitDx=0;exitDy=0;" parent="1" source="AVBnmvZ9WdcLxyfWrNlu-52" target="AVBnmvZ9WdcLxyfWrNlu-52" edge="1">
          <mxGeometry width="50" height="50" relative="1" as="geometry">
            <mxPoint x="878" y="290" as="sourcePoint" />
            <mxPoint x="928" y="240" as="targetPoint" />
          </mxGeometry>
        </mxCell>
        <mxCell id="AVBnmvZ9WdcLxyfWrNlu-71" value="" style="endArrow=none;html=1;rounded=0;entryX=0;entryY=1;entryDx=0;entryDy=0;exitX=1;exitY=1;exitDx=0;exitDy=0;" parent="1" edge="1">
          <mxGeometry width="50" height="50" relative="1" as="geometry">
            <mxPoint x="1114.13" y="269.8" as="sourcePoint" />
            <mxPoint x="1041.13" y="269.8" as="targetPoint" />
          </mxGeometry>
        </mxCell>
        <mxCell id="AVBnmvZ9WdcLxyfWrNlu-73" value="" style="shape=document;whiteSpace=wrap;html=1;boundedLbl=1;fillColor=#FAFAFA;" parent="1" vertex="1">
          <mxGeometry x="881" y="693.37" width="400" height="101" as="geometry" />
        </mxCell>
        <mxCell id="AVBnmvZ9WdcLxyfWrNlu-74" value="&lt;font style=&quot;font-size: 28px;&quot;&gt;&lt;b&gt;e&lt;/b&gt;Gym&lt;/font&gt;" style="text;html=1;strokeColor=none;fillColor=none;align=center;verticalAlign=middle;whiteSpace=wrap;rounded=0;fontSize=16;" parent="1" vertex="1">
          <mxGeometry x="1035.5" y="703" width="90" height="40" as="geometry" />
        </mxCell>
        <mxCell id="AVBnmvZ9WdcLxyfWrNlu-75" value="&lt;font style=&quot;font-size: 11px;&quot;&gt;calculadora&lt;/font&gt;" style="text;html=1;strokeColor=none;fillColor=none;align=center;verticalAlign=middle;whiteSpace=wrap;rounded=0;fontSize=16;" parent="1" vertex="1">
          <mxGeometry x="897.5" y="745" width="60" height="30" as="geometry" />
        </mxCell>
        <mxCell id="AVBnmvZ9WdcLxyfWrNlu-76" value="&lt;span style=&quot;font-size: 11px;&quot;&gt;deporte&lt;/span&gt;" style="text;html=1;strokeColor=none;fillColor=none;align=center;verticalAlign=middle;whiteSpace=wrap;rounded=0;fontSize=16;" parent="1" vertex="1">
          <mxGeometry x="954" y="745" width="60" height="30" as="geometry" />
        </mxCell>
        <mxCell id="AVBnmvZ9WdcLxyfWrNlu-77" value="&lt;font style=&quot;font-size: 10px;&quot;&gt;Idioma&lt;/font&gt;" style="text;html=1;strokeColor=none;fillColor=none;align=center;verticalAlign=middle;whiteSpace=wrap;rounded=0;fontSize=16;" parent="1" vertex="1">
          <mxGeometry x="1225.5" y="745" width="60" height="30" as="geometry" />
        </mxCell>
        <mxCell id="AVBnmvZ9WdcLxyfWrNlu-78" value="" style="triangle;whiteSpace=wrap;html=1;fontSize=16;rotation=90;fillColor=#000000;" parent="1" vertex="1">
          <mxGeometry x="1272.77" y="761.74" width="1.59" height="2.63" as="geometry" />
        </mxCell>
        <mxCell id="AVBnmvZ9WdcLxyfWrNlu-79" value="" style="triangle;whiteSpace=wrap;html=1;fontSize=16;rotation=90;fillColor=#000000;" parent="1" vertex="1">
          <mxGeometry x="1005.1799999999998" y="761.1800000000001" width="2.32" height="2.63" as="geometry" />
        </mxCell>
        <mxCell id="AVBnmvZ9WdcLxyfWrNlu-80" value="&lt;font style=&quot;font-size: 9px;&quot;&gt;Usuario&lt;/font&gt;" style="text;html=1;strokeColor=none;fillColor=none;align=center;verticalAlign=middle;whiteSpace=wrap;rounded=0;fontSize=16;" parent="1" vertex="1">
          <mxGeometry x="1182.5" y="716" width="60" height="30" as="geometry" />
        </mxCell>
        <mxCell id="AVBnmvZ9WdcLxyfWrNlu-81" value="" style="ellipse;whiteSpace=wrap;html=1;aspect=fixed;" parent="1" vertex="1">
          <mxGeometry x="1195" y="745" width="35" height="35" as="geometry" />
        </mxCell>
        <mxCell id="AVBnmvZ9WdcLxyfWrNlu-82" value="&lt;font style=&quot;font-size: 11px;&quot;&gt;mapa web&lt;/font&gt;" style="text;html=1;strokeColor=none;fillColor=none;align=center;verticalAlign=middle;whiteSpace=wrap;rounded=0;fontSize=16;" parent="1" vertex="1">
          <mxGeometry x="1015" y="744" width="55.5" height="32" as="geometry" />
        </mxCell>
        <mxCell id="AVBnmvZ9WdcLxyfWrNlu-83" value="&lt;font style=&quot;font-size: 11px;&quot;&gt;accesibilidad&lt;/font&gt;" style="text;html=1;strokeColor=none;fillColor=none;align=center;verticalAlign=middle;whiteSpace=wrap;rounded=0;fontSize=16;" parent="1" vertex="1">
          <mxGeometry x="1081.5" y="745" width="60" height="30" as="geometry" />
        </mxCell>
        <mxCell id="AVBnmvZ9WdcLxyfWrNlu-84" value="" style="shape=umlActor;verticalLabelPosition=bottom;verticalAlign=top;html=1;outlineConnect=0;" parent="1" vertex="1">
          <mxGeometry x="1207" y="749.99" width="11" height="25" as="geometry" />
        </mxCell>
        <mxCell id="vIT9YTBqe1MhlNfKoiLv-9" value="" style="rounded=1;whiteSpace=wrap;html=1;shadow=1;fillColor=#F5F5F5;" parent="1" vertex="1">
          <mxGeometry x="894.5" y="983" width="120" height="98" as="geometry" />
        </mxCell>
        <mxCell id="vIT9YTBqe1MhlNfKoiLv-17" value="" style="rounded=1;whiteSpace=wrap;html=1;shadow=1;fillColor=#F5F5F5;" parent="1" vertex="1">
          <mxGeometry x="1184.5" y="983" width="96" height="98" as="geometry" />
        </mxCell>
        <mxCell id="vIT9YTBqe1MhlNfKoiLv-21" value="" style="ellipse;whiteSpace=wrap;html=1;aspect=fixed;" parent="1" vertex="1">
          <mxGeometry x="1074.5" y="1101" width="10" height="10" as="geometry" />
        </mxCell>
        <mxCell id="vIT9YTBqe1MhlNfKoiLv-22" value="" style="ellipse;whiteSpace=wrap;html=1;aspect=fixed;" parent="1" vertex="1">
          <mxGeometry x="1092" y="1101" width="10" height="10" as="geometry" />
        </mxCell>
        <mxCell id="vIT9YTBqe1MhlNfKoiLv-23" value="" style="ellipse;whiteSpace=wrap;html=1;aspect=fixed;fillColor=#4A4A4A;" parent="1" vertex="1">
          <mxGeometry x="1057.5" y="1101" width="10" height="10" as="geometry" />
        </mxCell>
        <mxCell id="vIT9YTBqe1MhlNfKoiLv-24" value="&lt;h1 style=&quot;border-color: var(--border-color); text-align: left;&quot;&gt;Principiante&lt;/h1&gt;" style="text;html=1;strokeColor=none;fillColor=none;align=center;verticalAlign=middle;whiteSpace=wrap;rounded=0;" parent="1" vertex="1">
          <mxGeometry x="917.5" y="927" width="87" height="30" as="geometry" />
        </mxCell>
        <mxCell id="vIT9YTBqe1MhlNfKoiLv-47" value="VIDEO" style="rounded=0;whiteSpace=wrap;html=1;" parent="1" vertex="1">
          <mxGeometry x="909.5" y="1006" width="90" height="40" as="geometry" />
        </mxCell>
        <mxCell id="vIT9YTBqe1MhlNfKoiLv-49" value="titulo video" style="text;html=1;strokeColor=none;fillColor=none;align=center;verticalAlign=middle;whiteSpace=wrap;rounded=0;" parent="1" vertex="1">
          <mxGeometry x="924.5" y="1046" width="60" height="30" as="geometry" />
        </mxCell>
        <mxCell id="vIT9YTBqe1MhlNfKoiLv-50" value="" style="rounded=1;whiteSpace=wrap;html=1;shadow=1;fillColor=#F5F5F5;" parent="1" vertex="1">
          <mxGeometry x="1040.5" y="983" width="120" height="98" as="geometry" />
        </mxCell>
        <mxCell id="vIT9YTBqe1MhlNfKoiLv-51" value="VIDEO" style="rounded=0;whiteSpace=wrap;html=1;" parent="1" vertex="1">
          <mxGeometry x="1055.5" y="1006" width="90" height="40" as="geometry" />
        </mxCell>
        <mxCell id="vIT9YTBqe1MhlNfKoiLv-52" value="titulo video" style="text;html=1;strokeColor=none;fillColor=none;align=center;verticalAlign=middle;whiteSpace=wrap;rounded=0;" parent="1" vertex="1">
          <mxGeometry x="1070.5" y="1046" width="60" height="30" as="geometry" />
        </mxCell>
        <mxCell id="vIT9YTBqe1MhlNfKoiLv-53" value="&amp;nbsp; &amp;nbsp; &amp;nbsp;VIDEO" style="rounded=0;whiteSpace=wrap;html=1;" parent="1" vertex="1">
          <mxGeometry x="1199.5" y="1006" width="80.5" height="40" as="geometry" />
        </mxCell>
        <mxCell id="vIT9YTBqe1MhlNfKoiLv-54" value="titulo video" style="text;html=1;strokeColor=none;fillColor=none;align=center;verticalAlign=middle;whiteSpace=wrap;rounded=0;" parent="1" vertex="1">
          <mxGeometry x="1217.5" y="1047" width="60" height="30" as="geometry" />
        </mxCell>
        <mxCell id="vIT9YTBqe1MhlNfKoiLv-69" value="" style="rounded=1;whiteSpace=wrap;html=1;shadow=1;fillColor=#F5F5F5;" parent="1" vertex="1">
          <mxGeometry x="894.5" y="1198" width="120" height="98" as="geometry" />
        </mxCell>
        <mxCell id="vIT9YTBqe1MhlNfKoiLv-70" value="" style="rounded=1;whiteSpace=wrap;html=1;shadow=1;fillColor=#F5F5F5;" parent="1" vertex="1">
          <mxGeometry x="1184.5" y="1198" width="96" height="98" as="geometry" />
        </mxCell>
        <mxCell id="vIT9YTBqe1MhlNfKoiLv-71" value="" style="ellipse;whiteSpace=wrap;html=1;aspect=fixed;" parent="1" vertex="1">
          <mxGeometry x="1074.5" y="1316" width="10" height="10" as="geometry" />
        </mxCell>
        <mxCell id="vIT9YTBqe1MhlNfKoiLv-72" value="" style="ellipse;whiteSpace=wrap;html=1;aspect=fixed;" parent="1" vertex="1">
          <mxGeometry x="1092" y="1316" width="10" height="10" as="geometry" />
        </mxCell>
        <mxCell id="vIT9YTBqe1MhlNfKoiLv-73" value="" style="ellipse;whiteSpace=wrap;html=1;aspect=fixed;fillColor=#4A4A4A;" parent="1" vertex="1">
          <mxGeometry x="1057.5" y="1316" width="10" height="10" as="geometry" />
        </mxCell>
        <mxCell id="vIT9YTBqe1MhlNfKoiLv-74" value="&lt;h1 style=&quot;border-color: var(--border-color); text-align: left;&quot;&gt;Intermedio&lt;/h1&gt;" style="text;html=1;strokeColor=none;fillColor=none;align=center;verticalAlign=middle;whiteSpace=wrap;rounded=0;" parent="1" vertex="1">
          <mxGeometry x="917.5" y="1142" width="82.5" height="30" as="geometry" />
        </mxCell>
        <mxCell id="vIT9YTBqe1MhlNfKoiLv-75" value="VIDEO" style="rounded=0;whiteSpace=wrap;html=1;" parent="1" vertex="1">
          <mxGeometry x="909.5" y="1221" width="90" height="40" as="geometry" />
        </mxCell>
        <mxCell id="vIT9YTBqe1MhlNfKoiLv-76" value="titulo video" style="text;html=1;strokeColor=none;fillColor=none;align=center;verticalAlign=middle;whiteSpace=wrap;rounded=0;" parent="1" vertex="1">
          <mxGeometry x="924.5" y="1261" width="60" height="30" as="geometry" />
        </mxCell>
        <mxCell id="vIT9YTBqe1MhlNfKoiLv-77" value="" style="rounded=1;whiteSpace=wrap;html=1;shadow=1;fillColor=#F5F5F5;" parent="1" vertex="1">
          <mxGeometry x="1040.5" y="1198" width="120" height="98" as="geometry" />
        </mxCell>
        <mxCell id="vIT9YTBqe1MhlNfKoiLv-78" value="VIDEO" style="rounded=0;whiteSpace=wrap;html=1;" parent="1" vertex="1">
          <mxGeometry x="1055.5" y="1221" width="90" height="40" as="geometry" />
        </mxCell>
        <mxCell id="vIT9YTBqe1MhlNfKoiLv-79" value="titulo video" style="text;html=1;strokeColor=none;fillColor=none;align=center;verticalAlign=middle;whiteSpace=wrap;rounded=0;" parent="1" vertex="1">
          <mxGeometry x="1070.5" y="1261" width="60" height="30" as="geometry" />
        </mxCell>
        <mxCell id="vIT9YTBqe1MhlNfKoiLv-80" value="&amp;nbsp; &amp;nbsp; &amp;nbsp;VIDEO" style="rounded=0;whiteSpace=wrap;html=1;" parent="1" vertex="1">
          <mxGeometry x="1199.5" y="1221" width="80.5" height="40" as="geometry" />
        </mxCell>
        <mxCell id="vIT9YTBqe1MhlNfKoiLv-81" value="titulo video" style="text;html=1;strokeColor=none;fillColor=none;align=center;verticalAlign=middle;whiteSpace=wrap;rounded=0;" parent="1" vertex="1">
          <mxGeometry x="1217.5" y="1262" width="60" height="30" as="geometry" />
        </mxCell>
        <mxCell id="vIT9YTBqe1MhlNfKoiLv-85" value="" style="rounded=1;whiteSpace=wrap;html=1;shadow=1;fillColor=#F5F5F5;" parent="1" vertex="1">
          <mxGeometry x="894" y="1406" width="120" height="98" as="geometry" />
        </mxCell>
        <mxCell id="vIT9YTBqe1MhlNfKoiLv-86" value="" style="rounded=1;whiteSpace=wrap;html=1;shadow=1;fillColor=#F5F5F5;" parent="1" vertex="1">
          <mxGeometry x="1184" y="1406" width="96" height="98" as="geometry" />
        </mxCell>
        <mxCell id="vIT9YTBqe1MhlNfKoiLv-87" value="" style="ellipse;whiteSpace=wrap;html=1;aspect=fixed;" parent="1" vertex="1">
          <mxGeometry x="1074" y="1524" width="10" height="10" as="geometry" />
        </mxCell>
        <mxCell id="vIT9YTBqe1MhlNfKoiLv-88" value="" style="ellipse;whiteSpace=wrap;html=1;aspect=fixed;" parent="1" vertex="1">
          <mxGeometry x="1091.5" y="1524" width="10" height="10" as="geometry" />
        </mxCell>
        <mxCell id="vIT9YTBqe1MhlNfKoiLv-89" value="" style="ellipse;whiteSpace=wrap;html=1;aspect=fixed;fillColor=#4A4A4A;" parent="1" vertex="1">
          <mxGeometry x="1057" y="1524" width="10" height="10" as="geometry" />
        </mxCell>
        <mxCell id="vIT9YTBqe1MhlNfKoiLv-90" value="&lt;h1 style=&quot;border-color: var(--border-color); text-align: left;&quot;&gt;Avanzado&lt;/h1&gt;" style="text;html=1;strokeColor=none;fillColor=none;align=center;verticalAlign=middle;whiteSpace=wrap;rounded=0;" parent="1" vertex="1">
          <mxGeometry x="917" y="1350" width="82.5" height="30" as="geometry" />
        </mxCell>
        <mxCell id="vIT9YTBqe1MhlNfKoiLv-91" value="VIDEO" style="rounded=0;whiteSpace=wrap;html=1;" parent="1" vertex="1">
          <mxGeometry x="909" y="1429" width="90" height="40" as="geometry" />
        </mxCell>
        <mxCell id="vIT9YTBqe1MhlNfKoiLv-92" value="titulo video" style="text;html=1;strokeColor=none;fillColor=none;align=center;verticalAlign=middle;whiteSpace=wrap;rounded=0;" parent="1" vertex="1">
          <mxGeometry x="924" y="1469" width="60" height="30" as="geometry" />
        </mxCell>
        <mxCell id="vIT9YTBqe1MhlNfKoiLv-93" value="" style="rounded=1;whiteSpace=wrap;html=1;shadow=1;fillColor=#F5F5F5;" parent="1" vertex="1">
          <mxGeometry x="1040" y="1406" width="120" height="98" as="geometry" />
        </mxCell>
        <mxCell id="vIT9YTBqe1MhlNfKoiLv-94" value="VIDEO" style="rounded=0;whiteSpace=wrap;html=1;" parent="1" vertex="1">
          <mxGeometry x="1055" y="1429" width="90" height="40" as="geometry" />
        </mxCell>
        <mxCell id="vIT9YTBqe1MhlNfKoiLv-95" value="titulo video" style="text;html=1;strokeColor=none;fillColor=none;align=center;verticalAlign=middle;whiteSpace=wrap;rounded=0;" parent="1" vertex="1">
          <mxGeometry x="1070" y="1469" width="60" height="30" as="geometry" />
        </mxCell>
        <mxCell id="vIT9YTBqe1MhlNfKoiLv-96" value="&amp;nbsp; &amp;nbsp; &amp;nbsp;VIDEO" style="rounded=0;whiteSpace=wrap;html=1;" parent="1" vertex="1">
          <mxGeometry x="1199" y="1429" width="80.5" height="40" as="geometry" />
        </mxCell>
        <mxCell id="vIT9YTBqe1MhlNfKoiLv-97" value="titulo video" style="text;html=1;strokeColor=none;fillColor=none;align=center;verticalAlign=middle;whiteSpace=wrap;rounded=0;" parent="1" vertex="1">
          <mxGeometry x="1217" y="1470" width="60" height="30" as="geometry" />
        </mxCell>
        <mxCell id="vIT9YTBqe1MhlNfKoiLv-100" value="&lt;u&gt;bloqueado&lt;/u&gt;" style="text;html=1;strokeColor=none;fillColor=none;align=center;verticalAlign=middle;whiteSpace=wrap;rounded=0;" parent="1" vertex="1">
          <mxGeometry x="1023" y="1352" width="92" height="30" as="geometry" />
        </mxCell>
        <mxCell id="U64FMujcXQDZJKp7yGKK-1" value="" style="rounded=0;whiteSpace=wrap;html=1;gradientDirection=radial;fillStyle=dashed;fillColor=#000000;strokeColor=#23445d;" parent="1" vertex="1">
          <mxGeometry x="881.5" y="1343" width="400" height="210" as="geometry" />
        </mxCell>
        <mxCell id="U64FMujcXQDZJKp7yGKK-12" value="" style="rounded=0;whiteSpace=wrap;html=1;fillColor=#D9D9D9;" parent="1" vertex="1">
          <mxGeometry x="882" y="1553" width="400" height="93" as="geometry" />
        </mxCell>
        <mxCell id="U64FMujcXQDZJKp7yGKK-13" value="EGym" style="text;html=1;strokeColor=none;fillColor=none;align=center;verticalAlign=middle;whiteSpace=wrap;rounded=0;fontSize=16;" parent="1" vertex="1">
          <mxGeometry x="1029.5" y="1565" width="110" height="30" as="geometry" />
        </mxCell>
        <mxCell id="U64FMujcXQDZJKp7yGKK-14" value="" style="endArrow=none;html=1;rounded=0;fontSize=12;startSize=8;endSize=8;curved=1;entryX=1;entryY=1;entryDx=0;entryDy=0;exitX=0;exitY=1;exitDx=0;exitDy=0;" parent="1" source="U64FMujcXQDZJKp7yGKK-13" target="U64FMujcXQDZJKp7yGKK-13" edge="1">
          <mxGeometry width="50" height="50" relative="1" as="geometry">
            <mxPoint x="1052" y="1653" as="sourcePoint" />
            <mxPoint x="1102" y="1603" as="targetPoint" />
          </mxGeometry>
        </mxCell>
        <mxCell id="U64FMujcXQDZJKp7yGKK-15" value="Ln" style="ellipse;whiteSpace=wrap;html=1;aspect=fixed;fontSize=16;" parent="1" vertex="1">
          <mxGeometry x="1074" y="1606" width="25" height="25" as="geometry" />
        </mxCell>
        <mxCell id="U64FMujcXQDZJKp7yGKK-16" value="Tw" style="ellipse;whiteSpace=wrap;html=1;aspect=fixed;fontSize=16;" parent="1" vertex="1">
          <mxGeometry x="1114.5" y="1606" width="25" height="25" as="geometry" />
        </mxCell>
        <mxCell id="U64FMujcXQDZJKp7yGKK-17" value="Fb" style="ellipse;whiteSpace=wrap;html=1;aspect=fixed;fontSize=16;" parent="1" vertex="1">
          <mxGeometry x="1033" y="1606" width="25" height="25" as="geometry" />
        </mxCell>
        <mxCell id="U64FMujcXQDZJKp7yGKK-18" value="Yt" style="ellipse;whiteSpace=wrap;html=1;aspect=fixed;fontSize=16;" parent="1" vertex="1">
          <mxGeometry x="1154.75" y="1606" width="25" height="25" as="geometry" />
        </mxCell>
        <mxCell id="U64FMujcXQDZJKp7yGKK-19" value="In" style="ellipse;whiteSpace=wrap;html=1;aspect=fixed;fontSize=16;" parent="1" vertex="1">
          <mxGeometry x="992" y="1606" width="25" height="25" as="geometry" />
        </mxCell>
        <mxCell id="U64FMujcXQDZJKp7yGKK-20" value="" style="rounded=0;whiteSpace=wrap;html=1;fillColor=#B3B3B3;" parent="1" vertex="1">
          <mxGeometry x="882" y="1646" width="400" height="23" as="geometry" />
        </mxCell>
        <mxCell id="U64FMujcXQDZJKp7yGKK-21" value="&lt;font size=&quot;1&quot;&gt;Miquel Rodrigo Navarro | @Copyright | www.egym.com | v.01&lt;/font&gt;" style="text;html=1;strokeColor=none;fillColor=none;align=left;verticalAlign=middle;whiteSpace=wrap;rounded=0;" parent="1" vertex="1">
          <mxGeometry x="884.5" y="1643" width="307.5" height="30" as="geometry" />
        </mxCell>
        <mxCell id="U64FMujcXQDZJKp7yGKK-24" value="" style="rounded=0;whiteSpace=wrap;html=1;fillColor=#D9D9D9;" parent="1" vertex="1">
          <mxGeometry x="439.86" y="410.5" width="400" height="93" as="geometry" />
        </mxCell>
        <mxCell id="U64FMujcXQDZJKp7yGKK-25" value="EGym" style="text;html=1;strokeColor=none;fillColor=none;align=center;verticalAlign=middle;whiteSpace=wrap;rounded=0;fontSize=16;" parent="1" vertex="1">
          <mxGeometry x="587.36" y="422.5" width="110" height="30" as="geometry" />
        </mxCell>
        <mxCell id="U64FMujcXQDZJKp7yGKK-26" value="" style="endArrow=none;html=1;rounded=0;fontSize=12;startSize=8;endSize=8;curved=1;entryX=1;entryY=1;entryDx=0;entryDy=0;exitX=0;exitY=1;exitDx=0;exitDy=0;" parent="1" source="U64FMujcXQDZJKp7yGKK-25" target="U64FMujcXQDZJKp7yGKK-25" edge="1">
          <mxGeometry width="50" height="50" relative="1" as="geometry">
            <mxPoint x="609.86" y="510.5" as="sourcePoint" />
            <mxPoint x="659.86" y="460.5" as="targetPoint" />
          </mxGeometry>
        </mxCell>
        <mxCell id="U64FMujcXQDZJKp7yGKK-27" value="Ln" style="ellipse;whiteSpace=wrap;html=1;aspect=fixed;fontSize=16;" parent="1" vertex="1">
          <mxGeometry x="631.86" y="463.5" width="25" height="25" as="geometry" />
        </mxCell>
        <mxCell id="U64FMujcXQDZJKp7yGKK-28" value="Tw" style="ellipse;whiteSpace=wrap;html=1;aspect=fixed;fontSize=16;" parent="1" vertex="1">
          <mxGeometry x="672.36" y="463.5" width="25" height="25" as="geometry" />
        </mxCell>
        <mxCell id="U64FMujcXQDZJKp7yGKK-29" value="Fb" style="ellipse;whiteSpace=wrap;html=1;aspect=fixed;fontSize=16;" parent="1" vertex="1">
          <mxGeometry x="590.86" y="463.5" width="25" height="25" as="geometry" />
        </mxCell>
        <mxCell id="U64FMujcXQDZJKp7yGKK-30" value="Yt" style="ellipse;whiteSpace=wrap;html=1;aspect=fixed;fontSize=16;" parent="1" vertex="1">
          <mxGeometry x="712.61" y="463.5" width="25" height="25" as="geometry" />
        </mxCell>
        <mxCell id="U64FMujcXQDZJKp7yGKK-31" value="In" style="ellipse;whiteSpace=wrap;html=1;aspect=fixed;fontSize=16;" parent="1" vertex="1">
          <mxGeometry x="549.86" y="463.5" width="25" height="25" as="geometry" />
        </mxCell>
        <mxCell id="U64FMujcXQDZJKp7yGKK-32" value="" style="rounded=0;whiteSpace=wrap;html=1;fillColor=#B3B3B3;" parent="1" vertex="1">
          <mxGeometry x="439.86" y="503.5" width="400" height="23" as="geometry" />
        </mxCell>
        <mxCell id="U64FMujcXQDZJKp7yGKK-33" value="&lt;font size=&quot;1&quot;&gt;Miquel Rodrigo Navarro | @Copyright | www.egym.com | v.01&lt;/font&gt;" style="text;html=1;strokeColor=none;fillColor=none;align=left;verticalAlign=middle;whiteSpace=wrap;rounded=0;" parent="1" vertex="1">
          <mxGeometry x="442.36" y="500.5" width="307.5" height="30" as="geometry" />
        </mxCell>
        <mxCell id="U64FMujcXQDZJKp7yGKK-34" value="" style="rounded=0;whiteSpace=wrap;html=1;fillColor=#D9D9D9;" parent="1" vertex="1">
          <mxGeometry x="878.5" y="380" width="400" height="93" as="geometry" />
        </mxCell>
        <mxCell id="U64FMujcXQDZJKp7yGKK-35" value="EGym" style="text;html=1;strokeColor=none;fillColor=none;align=center;verticalAlign=middle;whiteSpace=wrap;rounded=0;fontSize=16;" parent="1" vertex="1">
          <mxGeometry x="1026" y="392" width="110" height="30" as="geometry" />
        </mxCell>
        <mxCell id="U64FMujcXQDZJKp7yGKK-36" value="" style="endArrow=none;html=1;rounded=0;fontSize=12;startSize=8;endSize=8;curved=1;entryX=1;entryY=1;entryDx=0;entryDy=0;exitX=0;exitY=1;exitDx=0;exitDy=0;" parent="1" source="U64FMujcXQDZJKp7yGKK-35" target="U64FMujcXQDZJKp7yGKK-35" edge="1">
          <mxGeometry width="50" height="50" relative="1" as="geometry">
            <mxPoint x="1048.5" y="480" as="sourcePoint" />
            <mxPoint x="1098.5" y="430" as="targetPoint" />
          </mxGeometry>
        </mxCell>
        <mxCell id="U64FMujcXQDZJKp7yGKK-37" value="Ln" style="ellipse;whiteSpace=wrap;html=1;aspect=fixed;fontSize=16;" parent="1" vertex="1">
          <mxGeometry x="1070.5" y="433" width="25" height="25" as="geometry" />
        </mxCell>
        <mxCell id="U64FMujcXQDZJKp7yGKK-38" value="Tw" style="ellipse;whiteSpace=wrap;html=1;aspect=fixed;fontSize=16;" parent="1" vertex="1">
          <mxGeometry x="1111" y="433" width="25" height="25" as="geometry" />
        </mxCell>
        <mxCell id="U64FMujcXQDZJKp7yGKK-39" value="Fb" style="ellipse;whiteSpace=wrap;html=1;aspect=fixed;fontSize=16;" parent="1" vertex="1">
          <mxGeometry x="1029.5" y="433" width="25" height="25" as="geometry" />
        </mxCell>
        <mxCell id="U64FMujcXQDZJKp7yGKK-40" value="Yt" style="ellipse;whiteSpace=wrap;html=1;aspect=fixed;fontSize=16;" parent="1" vertex="1">
          <mxGeometry x="1151.25" y="433" width="25" height="25" as="geometry" />
        </mxCell>
        <mxCell id="U64FMujcXQDZJKp7yGKK-41" value="In" style="ellipse;whiteSpace=wrap;html=1;aspect=fixed;fontSize=16;" parent="1" vertex="1">
          <mxGeometry x="988.5" y="433" width="25" height="25" as="geometry" />
        </mxCell>
        <mxCell id="U64FMujcXQDZJKp7yGKK-42" value="" style="rounded=0;whiteSpace=wrap;html=1;fillColor=#B3B3B3;" parent="1" vertex="1">
          <mxGeometry x="878.5" y="473" width="400" height="23" as="geometry" />
        </mxCell>
        <mxCell id="U64FMujcXQDZJKp7yGKK-43" value="&lt;font size=&quot;1&quot;&gt;Miquel Rodrigo Navarro | @Copyright | www.egym.com | v.01&lt;/font&gt;" style="text;html=1;strokeColor=none;fillColor=none;align=left;verticalAlign=middle;whiteSpace=wrap;rounded=0;" parent="1" vertex="1">
          <mxGeometry x="881" y="470" width="307.5" height="30" as="geometry" />
        </mxCell>
        <mxCell id="U64FMujcXQDZJKp7yGKK-44" value="" style="rounded=0;whiteSpace=wrap;html=1;gradientColor=#e3e3e3;gradientDirection=radial;" parent="1" vertex="1">
          <mxGeometry x="441.86" y="783" width="400" height="385" as="geometry" />
        </mxCell>
        <mxCell id="U64FMujcXQDZJKp7yGKK-45" value="" style="shape=document;whiteSpace=wrap;html=1;boundedLbl=1;fillColor=#FAFAFA;" parent="1" vertex="1">
          <mxGeometry x="441.86" y="747" width="400" height="101" as="geometry" />
        </mxCell>
        <mxCell id="U64FMujcXQDZJKp7yGKK-46" value="&lt;font style=&quot;font-size: 28px;&quot;&gt;&lt;b&gt;e&lt;/b&gt;Gym&lt;/font&gt;" style="text;html=1;strokeColor=none;fillColor=none;align=center;verticalAlign=middle;whiteSpace=wrap;rounded=0;fontSize=16;" parent="1" vertex="1">
          <mxGeometry x="596.86" y="757" width="90" height="40" as="geometry" />
        </mxCell>
        <mxCell id="U64FMujcXQDZJKp7yGKK-47" value="&lt;font style=&quot;font-size: 11px;&quot;&gt;calculadora&lt;/font&gt;" style="text;html=1;strokeColor=none;fillColor=none;align=center;verticalAlign=middle;whiteSpace=wrap;rounded=0;fontSize=16;" parent="1" vertex="1">
          <mxGeometry x="458.86" y="799" width="60" height="30" as="geometry" />
        </mxCell>
        <mxCell id="U64FMujcXQDZJKp7yGKK-48" value="&lt;span style=&quot;font-size: 11px;&quot;&gt;deporte&lt;/span&gt;" style="text;html=1;strokeColor=none;fillColor=none;align=center;verticalAlign=middle;whiteSpace=wrap;rounded=0;fontSize=16;" parent="1" vertex="1">
          <mxGeometry x="515.36" y="799" width="60" height="30" as="geometry" />
        </mxCell>
        <mxCell id="U64FMujcXQDZJKp7yGKK-49" value="&lt;font style=&quot;font-size: 10px;&quot;&gt;Idioma&lt;/font&gt;" style="text;html=1;strokeColor=none;fillColor=none;align=center;verticalAlign=middle;whiteSpace=wrap;rounded=0;fontSize=16;" parent="1" vertex="1">
          <mxGeometry x="786.86" y="799" width="60" height="30" as="geometry" />
        </mxCell>
        <mxCell id="U64FMujcXQDZJKp7yGKK-50" value="" style="triangle;whiteSpace=wrap;html=1;fontSize=16;rotation=90;fillColor=#000000;" parent="1" vertex="1">
          <mxGeometry x="834.13" y="815.74" width="1.59" height="2.63" as="geometry" />
        </mxCell>
        <mxCell id="U64FMujcXQDZJKp7yGKK-51" value="" style="triangle;whiteSpace=wrap;html=1;fontSize=16;rotation=90;fillColor=#000000;" parent="1" vertex="1">
          <mxGeometry x="566.5399999999998" y="815.1800000000001" width="2.32" height="2.63" as="geometry" />
        </mxCell>
        <mxCell id="U64FMujcXQDZJKp7yGKK-52" value="&lt;font style=&quot;font-size: 9px;&quot;&gt;Usuario&lt;/font&gt;" style="text;html=1;strokeColor=none;fillColor=none;align=center;verticalAlign=middle;whiteSpace=wrap;rounded=0;fontSize=16;" parent="1" vertex="1">
          <mxGeometry x="743.86" y="770" width="60" height="30" as="geometry" />
        </mxCell>
        <mxCell id="U64FMujcXQDZJKp7yGKK-53" value="" style="ellipse;whiteSpace=wrap;html=1;aspect=fixed;" parent="1" vertex="1">
          <mxGeometry x="756.36" y="799" width="35" height="35" as="geometry" />
        </mxCell>
        <mxCell id="U64FMujcXQDZJKp7yGKK-54" value="&lt;font style=&quot;font-size: 11px;&quot;&gt;mapa web&lt;/font&gt;" style="text;html=1;strokeColor=none;fillColor=none;align=center;verticalAlign=middle;whiteSpace=wrap;rounded=0;fontSize=16;" parent="1" vertex="1">
          <mxGeometry x="575.36" y="798" width="55.5" height="32" as="geometry" />
        </mxCell>
        <mxCell id="U64FMujcXQDZJKp7yGKK-55" value="&lt;font style=&quot;font-size: 11px;&quot;&gt;accesibilidad&lt;/font&gt;" style="text;html=1;strokeColor=none;fillColor=none;align=center;verticalAlign=middle;whiteSpace=wrap;rounded=0;fontSize=16;" parent="1" vertex="1">
          <mxGeometry x="642.86" y="799" width="60" height="30" as="geometry" />
        </mxCell>
        <mxCell id="U64FMujcXQDZJKp7yGKK-56" value="" style="shape=umlActor;verticalLabelPosition=bottom;verticalAlign=top;html=1;outlineConnect=0;" parent="1" vertex="1">
          <mxGeometry x="768.36" y="803.99" width="11" height="25" as="geometry" />
        </mxCell>
        <mxCell id="U64FMujcXQDZJKp7yGKK-57" value="" style="rounded=1;whiteSpace=wrap;html=1;shadow=1;fontColor=#999999;fillColor=#BABABA;collapsible=0;dropTarget=0;container=0;backgroundOutline=0;movableLabel=0;autosize=0;fixedWidth=0;resizeWidth=1;resizeHeight=1;" parent="1" vertex="1">
          <mxGeometry x="539.36" y="894" width="205" height="244" as="geometry" />
        </mxCell>
        <mxCell id="U64FMujcXQDZJKp7yGKK-59" value="" style="rounded=1;whiteSpace=wrap;html=1;shadow=0;arcSize=15;" parent="1" vertex="1">
          <mxGeometry x="538.86" y="894" width="205" height="204" as="geometry" />
        </mxCell>
        <mxCell id="U64FMujcXQDZJKp7yGKK-68" value="" style="rounded=0;whiteSpace=wrap;html=1;fillColor=#D9D9D9;" parent="1" vertex="1">
          <mxGeometry x="442.36" y="1162" width="400" height="93" as="geometry" />
        </mxCell>
        <mxCell id="U64FMujcXQDZJKp7yGKK-69" value="EGym" style="text;html=1;strokeColor=none;fillColor=none;align=center;verticalAlign=middle;whiteSpace=wrap;rounded=0;fontSize=16;" parent="1" vertex="1">
          <mxGeometry x="589.86" y="1174" width="110" height="30" as="geometry" />
        </mxCell>
        <mxCell id="U64FMujcXQDZJKp7yGKK-70" value="" style="endArrow=none;html=1;rounded=0;fontSize=12;startSize=8;endSize=8;curved=1;entryX=1;entryY=1;entryDx=0;entryDy=0;exitX=0;exitY=1;exitDx=0;exitDy=0;" parent="1" source="U64FMujcXQDZJKp7yGKK-69" target="U64FMujcXQDZJKp7yGKK-69" edge="1">
          <mxGeometry width="50" height="50" relative="1" as="geometry">
            <mxPoint x="612.36" y="1262" as="sourcePoint" />
            <mxPoint x="662.36" y="1212" as="targetPoint" />
          </mxGeometry>
        </mxCell>
        <mxCell id="U64FMujcXQDZJKp7yGKK-71" value="Ln" style="ellipse;whiteSpace=wrap;html=1;aspect=fixed;fontSize=16;" parent="1" vertex="1">
          <mxGeometry x="634.36" y="1215" width="25" height="25" as="geometry" />
        </mxCell>
        <mxCell id="U64FMujcXQDZJKp7yGKK-72" value="Tw" style="ellipse;whiteSpace=wrap;html=1;aspect=fixed;fontSize=16;" parent="1" vertex="1">
          <mxGeometry x="674.86" y="1215" width="25" height="25" as="geometry" />
        </mxCell>
        <mxCell id="U64FMujcXQDZJKp7yGKK-73" value="Fb" style="ellipse;whiteSpace=wrap;html=1;aspect=fixed;fontSize=16;" parent="1" vertex="1">
          <mxGeometry x="593.36" y="1215" width="25" height="25" as="geometry" />
        </mxCell>
        <mxCell id="U64FMujcXQDZJKp7yGKK-74" value="Yt" style="ellipse;whiteSpace=wrap;html=1;aspect=fixed;fontSize=16;" parent="1" vertex="1">
          <mxGeometry x="715.11" y="1215" width="25" height="25" as="geometry" />
        </mxCell>
        <mxCell id="U64FMujcXQDZJKp7yGKK-75" value="In" style="ellipse;whiteSpace=wrap;html=1;aspect=fixed;fontSize=16;" parent="1" vertex="1">
          <mxGeometry x="552.36" y="1215" width="25" height="25" as="geometry" />
        </mxCell>
        <mxCell id="U64FMujcXQDZJKp7yGKK-76" value="" style="rounded=0;whiteSpace=wrap;html=1;fillColor=#B3B3B3;" parent="1" vertex="1">
          <mxGeometry x="442.36" y="1255" width="400" height="23" as="geometry" />
        </mxCell>
        <mxCell id="U64FMujcXQDZJKp7yGKK-77" value="&lt;font size=&quot;1&quot;&gt;Miquel Rodrigo Navarro | @Copyright | www.egym.com | v.01&lt;/font&gt;" style="text;html=1;strokeColor=none;fillColor=none;align=left;verticalAlign=middle;whiteSpace=wrap;rounded=0;" parent="1" vertex="1">
          <mxGeometry x="444.86" y="1251" width="307.5" height="30" as="geometry" />
        </mxCell>
        <mxCell id="U64FMujcXQDZJKp7yGKK-83" value="" style="rounded=1;whiteSpace=wrap;html=1;shadow=0.5;arcSize=50;fillColor=#000000000000000;" parent="1" vertex="1">
          <mxGeometry x="607.36" y="1070" width="75" height="20" as="geometry" />
        </mxCell>
        <mxCell id="U64FMujcXQDZJKp7yGKK-84" value="" style="rounded=1;whiteSpace=wrap;html=1;shadow=0.5;arcSize=50;fillColor=#EDEDED;" parent="1" vertex="1">
          <mxGeometry x="605.86" y="1069" width="75" height="20" as="geometry" />
        </mxCell>
        <mxCell id="U64FMujcXQDZJKp7yGKK-85" value="CALCULAR" style="text;html=1;strokeColor=none;fillColor=none;align=center;verticalAlign=middle;whiteSpace=wrap;rounded=0;fontSize=9;fontStyle=1" parent="1" vertex="1">
          <mxGeometry x="602.36" y="1074" width="79" height="10" as="geometry" />
        </mxCell>
        <mxCell id="U64FMujcXQDZJKp7yGKK-86" value="" style="rounded=0;whiteSpace=wrap;html=1;" parent="1" vertex="1">
          <mxGeometry x="556.36" y="335" width="40" height="12" as="geometry" />
        </mxCell>
        <mxCell id="U64FMujcXQDZJKp7yGKK-89" value="&lt;font style=&quot;font-size: 10px;&quot;&gt;Capcha&lt;/font&gt;" style="text;html=1;strokeColor=none;fillColor=none;align=center;verticalAlign=middle;whiteSpace=wrap;rounded=0;" parent="1" vertex="1">
          <mxGeometry x="552.86" y="336" width="44.14" height="10" as="geometry" />
        </mxCell>
        <mxCell id="U64FMujcXQDZJKp7yGKK-90" value="Edad" style="text;html=1;strokeColor=none;fillColor=none;align=left;verticalAlign=middle;whiteSpace=wrap;rounded=0;" parent="1" vertex="1">
          <mxGeometry x="554.36" y="922" width="70" height="16" as="geometry" />
        </mxCell>
        <mxCell id="U64FMujcXQDZJKp7yGKK-91" value="" style="triangle;whiteSpace=wrap;html=1;fontSize=16;rotation=90;fillColor=#000000;" parent="1" vertex="1">
          <mxGeometry x="589.9499999999998" y="928.6800000000001" width="2.32" height="2.63" as="geometry" />
        </mxCell>
        <mxCell id="U64FMujcXQDZJKp7yGKK-93" value="Altura en cm" style="text;html=1;strokeColor=none;fillColor=none;align=left;verticalAlign=middle;whiteSpace=wrap;rounded=0;fontStyle=0" parent="1" vertex="1">
          <mxGeometry x="553.86" y="942" width="70.5" height="16" as="geometry" />
        </mxCell>
        <mxCell id="U64FMujcXQDZJKp7yGKK-94" value="Sexo" style="text;html=1;strokeColor=none;fillColor=none;align=left;verticalAlign=middle;whiteSpace=wrap;rounded=0;" parent="1" vertex="1">
          <mxGeometry x="657.86" y="923" width="72.5" height="16" as="geometry" />
        </mxCell>
        <mxCell id="U64FMujcXQDZJKp7yGKK-95" value="" style="triangle;whiteSpace=wrap;html=1;fontSize=16;rotation=90;fillColor=#000000;" parent="1" vertex="1">
          <mxGeometry x="694.0399999999998" y="929.69" width="2.32" height="2.63" as="geometry" />
        </mxCell>
        <mxCell id="U64FMujcXQDZJKp7yGKK-96" value="Peso en kg" style="text;html=1;strokeColor=none;fillColor=none;align=left;verticalAlign=middle;whiteSpace=wrap;rounded=0;fontStyle=0" parent="1" vertex="1">
          <mxGeometry x="657.86" y="940" width="72.5" height="18" as="geometry" />
        </mxCell>
        <mxCell id="U64FMujcXQDZJKp7yGKK-97" value="Nivel de actividad" style="text;html=1;strokeColor=none;fillColor=none;align=left;verticalAlign=middle;whiteSpace=wrap;rounded=0;fontStyle=0" parent="1" vertex="1">
          <mxGeometry x="594.73" y="969" width="98.25" height="16" as="geometry" />
        </mxCell>
        <mxCell id="U64FMujcXQDZJKp7yGKK-98" value="" style="endArrow=none;html=1;rounded=0;exitX=0;exitY=1;exitDx=0;exitDy=0;entryX=1;entryY=1;entryDx=0;entryDy=0;" parent="1" source="U64FMujcXQDZJKp7yGKK-90" target="U64FMujcXQDZJKp7yGKK-90" edge="1">
          <mxGeometry width="50" height="50" relative="1" as="geometry">
            <mxPoint x="594.36" y="948" as="sourcePoint" />
            <mxPoint x="644.36" y="898" as="targetPoint" />
          </mxGeometry>
        </mxCell>
        <mxCell id="U64FMujcXQDZJKp7yGKK-99" value="" style="endArrow=none;html=1;rounded=0;exitX=0;exitY=1;exitDx=0;exitDy=0;entryX=1;entryY=1;entryDx=0;entryDy=0;" parent="1" source="U64FMujcXQDZJKp7yGKK-93" target="U64FMujcXQDZJKp7yGKK-93" edge="1">
          <mxGeometry width="50" height="50" relative="1" as="geometry">
            <mxPoint x="564.36" y="948" as="sourcePoint" />
            <mxPoint x="624.36" y="948" as="targetPoint" />
          </mxGeometry>
        </mxCell>
        <mxCell id="U64FMujcXQDZJKp7yGKK-100" value="" style="endArrow=none;html=1;rounded=0;exitX=0;exitY=1;exitDx=0;exitDy=0;entryX=1;entryY=1;entryDx=0;entryDy=0;" parent="1" source="U64FMujcXQDZJKp7yGKK-94" target="U64FMujcXQDZJKp7yGKK-94" edge="1">
          <mxGeometry width="50" height="50" relative="1" as="geometry">
            <mxPoint x="564.36" y="968" as="sourcePoint" />
            <mxPoint x="634.36" y="968" as="targetPoint" />
          </mxGeometry>
        </mxCell>
        <mxCell id="U64FMujcXQDZJKp7yGKK-101" value="" style="endArrow=none;html=1;rounded=0;exitX=0;exitY=1;exitDx=0;exitDy=0;entryX=1;entryY=1;entryDx=0;entryDy=0;" parent="1" source="U64FMujcXQDZJKp7yGKK-96" target="U64FMujcXQDZJKp7yGKK-96" edge="1">
          <mxGeometry width="50" height="50" relative="1" as="geometry">
            <mxPoint x="661.86" y="954.82" as="sourcePoint" />
            <mxPoint x="721.86" y="954.82" as="targetPoint" />
          </mxGeometry>
        </mxCell>
        <mxCell id="U64FMujcXQDZJKp7yGKK-103" value="" style="ellipse;whiteSpace=wrap;html=1;aspect=fixed;" parent="1" vertex="1">
          <mxGeometry x="552.36" y="995.75" width="6.25" height="6.25" as="geometry" />
        </mxCell>
        <mxCell id="U64FMujcXQDZJKp7yGKK-104" value="poco o nada de ejercicio" style="text;html=1;strokeColor=none;fillColor=none;align=left;verticalAlign=middle;whiteSpace=wrap;rounded=0;fontStyle=0;fontSize=9;" parent="1" vertex="1">
          <mxGeometry x="562.24" y="993.8699999999999" width="70.5" height="16" as="geometry" />
        </mxCell>
        <mxCell id="U64FMujcXQDZJKp7yGKK-105" value="ligero(1-3 dÃ­as/semana)" style="text;html=1;strokeColor=none;fillColor=none;align=left;verticalAlign=middle;whiteSpace=wrap;rounded=0;fontStyle=0;fontSize=9;" parent="1" vertex="1">
          <mxGeometry x="560.61" y="1026" width="70.5" height="16" as="geometry" />
        </mxCell>
        <mxCell id="U64FMujcXQDZJKp7yGKK-106" value="" style="ellipse;whiteSpace=wrap;html=1;aspect=fixed;" parent="1" vertex="1">
          <mxGeometry x="552.36" y="1027.87" width="6.25" height="6.25" as="geometry" />
        </mxCell>
        <mxCell id="U64FMujcXQDZJKp7yGKK-107" value="moderado(3-5 dÃ­as/semana)" style="text;html=1;strokeColor=none;fillColor=none;align=left;verticalAlign=middle;whiteSpace=wrap;rounded=0;fontStyle=0;fontSize=9;" parent="1" vertex="1">
          <mxGeometry x="659.86" y="993.8699999999999" width="70.5" height="16" as="geometry" />
        </mxCell>
        <mxCell id="U64FMujcXQDZJKp7yGKK-108" value="fuerte(6-7 dÃ­as/semana)" style="text;html=1;strokeColor=none;fillColor=none;align=left;verticalAlign=middle;whiteSpace=wrap;rounded=0;fontStyle=0;fontSize=9;" parent="1" vertex="1">
          <mxGeometry x="660.87" y="1025" width="70.5" height="16" as="geometry" />
        </mxCell>
        <mxCell id="U64FMujcXQDZJKp7yGKK-109" value="" style="ellipse;whiteSpace=wrap;html=1;aspect=fixed;" parent="1" vertex="1">
          <mxGeometry x="651.61" y="995.75" width="6.25" height="6.25" as="geometry" />
        </mxCell>
        <mxCell id="U64FMujcXQDZJKp7yGKK-111" value="" style="ellipse;whiteSpace=wrap;html=1;aspect=fixed;" parent="1" vertex="1">
          <mxGeometry x="652.99" y="1027.87" width="6.25" height="6.25" as="geometry" />
        </mxCell>
        <mxCell id="U64FMujcXQDZJKp7yGKK-112" value="RESULTADO" style="rounded=1;whiteSpace=wrap;html=1;" parent="1" vertex="1">
          <mxGeometry x="603.86" y="1107" width="77" height="20" as="geometry" />
        </mxCell>
        <mxCell id="U64FMujcXQDZJKp7yGKK-113" value="" style="endArrow=none;html=1;rounded=0;entryX=1;entryY=1;entryDx=0;entryDy=0;" parent="1" edge="1">
          <mxGeometry width="50" height="50" relative="1" as="geometry">
            <mxPoint x="544.36" y="976" as="sourcePoint" />
            <mxPoint x="591.36" y="976" as="targetPoint" />
          </mxGeometry>
        </mxCell>
        <mxCell id="U64FMujcXQDZJKp7yGKK-114" value="" style="endArrow=none;html=1;rounded=0;" parent="1" edge="1">
          <mxGeometry width="50" height="50" relative="1" as="geometry">
            <mxPoint x="693.36" y="978" as="sourcePoint" />
            <mxPoint x="740.36" y="978" as="targetPoint" />
          </mxGeometry>
        </mxCell>
        <mxCell id="U64FMujcXQDZJKp7yGKK-115" value="" style="rounded=0;whiteSpace=wrap;html=1;gradientColor=#e3e3e3;gradientDirection=radial;" parent="1" vertex="1">
          <mxGeometry x="441.86" y="1484" width="400" height="294" as="geometry" />
        </mxCell>
        <mxCell id="U64FMujcXQDZJKp7yGKK-116" value="" style="shape=document;whiteSpace=wrap;html=1;boundedLbl=1;fillColor=#FAFAFA;" parent="1" vertex="1">
          <mxGeometry x="441.86" y="1448" width="400" height="101" as="geometry" />
        </mxCell>
        <mxCell id="U64FMujcXQDZJKp7yGKK-117" value="&lt;font style=&quot;font-size: 28px;&quot;&gt;&lt;b&gt;e&lt;/b&gt;Gym&lt;/font&gt;" style="text;html=1;strokeColor=none;fillColor=none;align=center;verticalAlign=middle;whiteSpace=wrap;rounded=0;fontSize=16;" parent="1" vertex="1">
          <mxGeometry x="596.86" y="1458" width="90" height="40" as="geometry" />
        </mxCell>
        <mxCell id="U64FMujcXQDZJKp7yGKK-118" value="&lt;font style=&quot;font-size: 11px;&quot;&gt;calculadora&lt;/font&gt;" style="text;html=1;strokeColor=none;fillColor=none;align=center;verticalAlign=middle;whiteSpace=wrap;rounded=0;fontSize=16;" parent="1" vertex="1">
          <mxGeometry x="458.86" y="1500" width="60" height="30" as="geometry" />
        </mxCell>
        <mxCell id="U64FMujcXQDZJKp7yGKK-119" value="&lt;span style=&quot;font-size: 11px;&quot;&gt;deporte&lt;/span&gt;" style="text;html=1;strokeColor=none;fillColor=none;align=center;verticalAlign=middle;whiteSpace=wrap;rounded=0;fontSize=16;" parent="1" vertex="1">
          <mxGeometry x="515.36" y="1500" width="60" height="30" as="geometry" />
        </mxCell>
        <mxCell id="U64FMujcXQDZJKp7yGKK-120" value="&lt;font style=&quot;font-size: 10px;&quot;&gt;Idioma&lt;/font&gt;" style="text;html=1;strokeColor=none;fillColor=none;align=center;verticalAlign=middle;whiteSpace=wrap;rounded=0;fontSize=16;" parent="1" vertex="1">
          <mxGeometry x="786.86" y="1500" width="60" height="30" as="geometry" />
        </mxCell>
        <mxCell id="U64FMujcXQDZJKp7yGKK-121" value="" style="triangle;whiteSpace=wrap;html=1;fontSize=16;rotation=90;fillColor=#000000;" parent="1" vertex="1">
          <mxGeometry x="834.13" y="1516.74" width="1.59" height="2.63" as="geometry" />
        </mxCell>
        <mxCell id="U64FMujcXQDZJKp7yGKK-122" value="" style="triangle;whiteSpace=wrap;html=1;fontSize=16;rotation=90;fillColor=#000000;" parent="1" vertex="1">
          <mxGeometry x="566.5399999999998" y="1516.18" width="2.32" height="2.63" as="geometry" />
        </mxCell>
        <mxCell id="U64FMujcXQDZJKp7yGKK-123" value="&lt;font style=&quot;font-size: 9px;&quot;&gt;Usuario&lt;/font&gt;" style="text;html=1;strokeColor=none;fillColor=none;align=center;verticalAlign=middle;whiteSpace=wrap;rounded=0;fontSize=16;" parent="1" vertex="1">
          <mxGeometry x="743.86" y="1471" width="60" height="30" as="geometry" />
        </mxCell>
        <mxCell id="U64FMujcXQDZJKp7yGKK-124" value="" style="ellipse;whiteSpace=wrap;html=1;aspect=fixed;" parent="1" vertex="1">
          <mxGeometry x="756.36" y="1500" width="35" height="35" as="geometry" />
        </mxCell>
        <mxCell id="U64FMujcXQDZJKp7yGKK-125" value="&lt;font style=&quot;font-size: 11px;&quot;&gt;mapa web&lt;/font&gt;" style="text;html=1;strokeColor=none;fillColor=none;align=center;verticalAlign=middle;whiteSpace=wrap;rounded=0;fontSize=16;" parent="1" vertex="1">
          <mxGeometry x="575.36" y="1499" width="55.5" height="32" as="geometry" />
        </mxCell>
        <mxCell id="U64FMujcXQDZJKp7yGKK-126" value="&lt;font style=&quot;font-size: 11px;&quot;&gt;accesibilidad&lt;/font&gt;" style="text;html=1;strokeColor=none;fillColor=none;align=center;verticalAlign=middle;whiteSpace=wrap;rounded=0;fontSize=16;" parent="1" vertex="1">
          <mxGeometry x="642.86" y="1500" width="60" height="30" as="geometry" />
        </mxCell>
        <mxCell id="U64FMujcXQDZJKp7yGKK-127" value="" style="shape=umlActor;verticalLabelPosition=bottom;verticalAlign=top;html=1;outlineConnect=0;" parent="1" vertex="1">
          <mxGeometry x="768.36" y="1504.99" width="11" height="25" as="geometry" />
        </mxCell>
        <mxCell id="U64FMujcXQDZJKp7yGKK-139" value="" style="rounded=0;whiteSpace=wrap;html=1;fillColor=#D9D9D9;" parent="1" vertex="1">
          <mxGeometry x="442.36" y="1778" width="400" height="93" as="geometry" />
        </mxCell>
        <mxCell id="U64FMujcXQDZJKp7yGKK-140" value="EGym" style="text;html=1;strokeColor=none;fillColor=none;align=center;verticalAlign=middle;whiteSpace=wrap;rounded=0;fontSize=16;" parent="1" vertex="1">
          <mxGeometry x="589.86" y="1790" width="110" height="30" as="geometry" />
        </mxCell>
        <mxCell id="U64FMujcXQDZJKp7yGKK-141" value="" style="endArrow=none;html=1;rounded=0;fontSize=12;startSize=8;endSize=8;curved=1;entryX=1;entryY=1;entryDx=0;entryDy=0;exitX=0;exitY=1;exitDx=0;exitDy=0;" parent="1" source="U64FMujcXQDZJKp7yGKK-140" target="U64FMujcXQDZJKp7yGKK-140" edge="1">
          <mxGeometry width="50" height="50" relative="1" as="geometry">
            <mxPoint x="612.36" y="1878" as="sourcePoint" />
            <mxPoint x="662.36" y="1828" as="targetPoint" />
          </mxGeometry>
        </mxCell>
        <mxCell id="U64FMujcXQDZJKp7yGKK-142" value="Ln" style="ellipse;whiteSpace=wrap;html=1;aspect=fixed;fontSize=16;" parent="1" vertex="1">
          <mxGeometry x="634.36" y="1831" width="25" height="25" as="geometry" />
        </mxCell>
        <mxCell id="U64FMujcXQDZJKp7yGKK-143" value="Tw" style="ellipse;whiteSpace=wrap;html=1;aspect=fixed;fontSize=16;" parent="1" vertex="1">
          <mxGeometry x="674.86" y="1831" width="25" height="25" as="geometry" />
        </mxCell>
        <mxCell id="U64FMujcXQDZJKp7yGKK-144" value="Fb" style="ellipse;whiteSpace=wrap;html=1;aspect=fixed;fontSize=16;" parent="1" vertex="1">
          <mxGeometry x="593.36" y="1831" width="25" height="25" as="geometry" />
        </mxCell>
        <mxCell id="U64FMujcXQDZJKp7yGKK-145" value="Yt" style="ellipse;whiteSpace=wrap;html=1;aspect=fixed;fontSize=16;" parent="1" vertex="1">
          <mxGeometry x="715.11" y="1831" width="25" height="25" as="geometry" />
        </mxCell>
        <mxCell id="U64FMujcXQDZJKp7yGKK-146" value="In" style="ellipse;whiteSpace=wrap;html=1;aspect=fixed;fontSize=16;" parent="1" vertex="1">
          <mxGeometry x="552.36" y="1831" width="25" height="25" as="geometry" />
        </mxCell>
        <mxCell id="U64FMujcXQDZJKp7yGKK-147" value="" style="rounded=0;whiteSpace=wrap;html=1;fillColor=#B3B3B3;" parent="1" vertex="1">
          <mxGeometry x="442.36" y="1871" width="400" height="23" as="geometry" />
        </mxCell>
        <mxCell id="U64FMujcXQDZJKp7yGKK-148" value="&lt;font size=&quot;1&quot;&gt;Miquel Rodrigo Navarro | @Copyright | www.egym.com | v.01&lt;/font&gt;" style="text;html=1;strokeColor=none;fillColor=none;align=left;verticalAlign=middle;whiteSpace=wrap;rounded=0;" parent="1" vertex="1">
          <mxGeometry x="444.86" y="1868" width="307.5" height="30" as="geometry" />
        </mxCell>
        <mxCell id="Vafoa2DsrymFhPEcsIIj-1" value="Deportes" style="text;html=1;strokeColor=none;fillColor=none;align=left;verticalAlign=middle;whiteSpace=wrap;rounded=0;fontSize=17;fontStyle=1" parent="1" vertex="1">
          <mxGeometry x="479.36" y="1571" width="103" height="30" as="geometry" />
        </mxCell>
        <mxCell id="9AlWdbKrWL7wsNAgKQS9-1" value="Boxeo" style="text;html=1;strokeColor=none;fillColor=none;align=left;verticalAlign=middle;whiteSpace=wrap;rounded=0;fontSize=17;fontStyle=0" parent="1" vertex="1">
          <mxGeometry x="480.22" y="1601" width="82.14" height="30" as="geometry" />
        </mxCell>
        <mxCell id="9AlWdbKrWL7wsNAgKQS9-2" value="NataciÃ³n" style="text;html=1;strokeColor=none;fillColor=none;align=left;verticalAlign=middle;whiteSpace=wrap;rounded=0;fontSize=17;fontStyle=0" parent="1" vertex="1">
          <mxGeometry x="480.22" y="1631" width="82.14" height="30" as="geometry" />
        </mxCell>
        <mxCell id="9AlWdbKrWL7wsNAgKQS9-3" value="Crossfit" style="text;html=1;strokeColor=none;fillColor=none;align=left;verticalAlign=middle;whiteSpace=wrap;rounded=0;fontSize=17;fontStyle=0" parent="1" vertex="1">
          <mxGeometry x="480.22" y="1659" width="82.14" height="30" as="geometry" />
        </mxCell>
        <mxCell id="9AlWdbKrWL7wsNAgKQS9-4" value="Cycling" style="text;html=1;strokeColor=none;fillColor=none;align=left;verticalAlign=middle;whiteSpace=wrap;rounded=0;fontSize=17;fontStyle=0" parent="1" vertex="1">
          <mxGeometry x="480.22" y="1688" width="82.14" height="30" as="geometry" />
        </mxCell>
        <mxCell id="9AlWdbKrWL7wsNAgKQS9-5" value="Calistenia" style="text;html=1;strokeColor=none;fillColor=none;align=left;verticalAlign=middle;whiteSpace=wrap;rounded=0;fontSize=17;fontStyle=0" parent="1" vertex="1">
          <mxGeometry x="480.22" y="1718" width="82.14" height="30" as="geometry" />
        </mxCell>
        <mxCell id="9AlWdbKrWL7wsNAgKQS9-6" value="Otros" style="text;html=1;strokeColor=none;fillColor=none;align=left;verticalAlign=middle;whiteSpace=wrap;rounded=0;fontSize=17;fontStyle=1" parent="1" vertex="1">
          <mxGeometry x="608.22" y="1571" width="103" height="30" as="geometry" />
        </mxCell>
        <mxCell id="9AlWdbKrWL7wsNAgKQS9-7" value="Accesibilidad" style="text;html=1;strokeColor=none;fillColor=none;align=left;verticalAlign=middle;whiteSpace=wrap;rounded=0;fontSize=17;fontStyle=0" parent="1" vertex="1">
          <mxGeometry x="608.22" y="1598" width="114.14" height="30" as="geometry" />
        </mxCell>
        <mxCell id="9AlWdbKrWL7wsNAgKQS9-8" value="Calculadora de kilocalorias" style="text;html=1;strokeColor=none;fillColor=none;align=left;verticalAlign=middle;whiteSpace=wrap;rounded=0;fontSize=17;fontStyle=0" parent="1" vertex="1">
          <mxGeometry x="606.72" y="1629" width="225.64" height="30" as="geometry" />
        </mxCell>
        <mxCell id="Grx1fgmfP-nwtvqjVRt4-35" value="" style="rounded=0;whiteSpace=wrap;html=1;gradientColor=#e3e3e3;gradientDirection=radial;" parent="1" vertex="1">
          <mxGeometry y="1484" width="400" height="385" as="geometry" />
        </mxCell>
        <mxCell id="Grx1fgmfP-nwtvqjVRt4-36" value="" style="shape=document;whiteSpace=wrap;html=1;boundedLbl=1;fillColor=#FAFAFA;" parent="1" vertex="1">
          <mxGeometry y="1448" width="400" height="101" as="geometry" />
        </mxCell>
        <mxCell id="Grx1fgmfP-nwtvqjVRt4-37" value="&lt;font style=&quot;font-size: 28px;&quot;&gt;&lt;b&gt;e&lt;/b&gt;Gym&lt;/font&gt;" style="text;html=1;strokeColor=none;fillColor=none;align=center;verticalAlign=middle;whiteSpace=wrap;rounded=0;fontSize=16;" parent="1" vertex="1">
          <mxGeometry x="155" y="1458" width="90" height="40" as="geometry" />
        </mxCell>
        <mxCell id="Grx1fgmfP-nwtvqjVRt4-38" value="&lt;font style=&quot;font-size: 11px;&quot;&gt;calculadora&lt;/font&gt;" style="text;html=1;strokeColor=none;fillColor=none;align=center;verticalAlign=middle;whiteSpace=wrap;rounded=0;fontSize=16;" parent="1" vertex="1">
          <mxGeometry x="17" y="1500" width="60" height="30" as="geometry" />
        </mxCell>
        <mxCell id="Grx1fgmfP-nwtvqjVRt4-39" value="&lt;span style=&quot;font-size: 11px;&quot;&gt;deporte&lt;/span&gt;" style="text;html=1;strokeColor=none;fillColor=none;align=center;verticalAlign=middle;whiteSpace=wrap;rounded=0;fontSize=16;" parent="1" vertex="1">
          <mxGeometry x="73.5" y="1500" width="60" height="30" as="geometry" />
        </mxCell>
        <mxCell id="Grx1fgmfP-nwtvqjVRt4-40" value="&lt;font style=&quot;font-size: 10px;&quot;&gt;Idioma&lt;/font&gt;" style="text;html=1;strokeColor=none;fillColor=none;align=center;verticalAlign=middle;whiteSpace=wrap;rounded=0;fontSize=16;" parent="1" vertex="1">
          <mxGeometry x="345" y="1500" width="60" height="30" as="geometry" />
        </mxCell>
        <mxCell id="Grx1fgmfP-nwtvqjVRt4-41" value="" style="triangle;whiteSpace=wrap;html=1;fontSize=16;rotation=90;fillColor=#000000;" parent="1" vertex="1">
          <mxGeometry x="392.27" y="1516.74" width="1.59" height="2.63" as="geometry" />
        </mxCell>
        <mxCell id="Grx1fgmfP-nwtvqjVRt4-42" value="" style="triangle;whiteSpace=wrap;html=1;fontSize=16;rotation=90;fillColor=#000000;" parent="1" vertex="1">
          <mxGeometry x="124.67999999999984" y="1516.18" width="2.32" height="2.63" as="geometry" />
        </mxCell>
        <mxCell id="Grx1fgmfP-nwtvqjVRt4-43" value="&lt;font style=&quot;font-size: 9px;&quot;&gt;Usuario&lt;/font&gt;" style="text;html=1;strokeColor=none;fillColor=none;align=center;verticalAlign=middle;whiteSpace=wrap;rounded=0;fontSize=16;" parent="1" vertex="1">
          <mxGeometry x="302" y="1471" width="60" height="30" as="geometry" />
        </mxCell>
        <mxCell id="Grx1fgmfP-nwtvqjVRt4-44" value="" style="ellipse;whiteSpace=wrap;html=1;aspect=fixed;" parent="1" vertex="1">
          <mxGeometry x="314.5" y="1500" width="35" height="35" as="geometry" />
        </mxCell>
        <mxCell id="Grx1fgmfP-nwtvqjVRt4-45" value="&lt;font style=&quot;font-size: 11px;&quot;&gt;mapa web&lt;/font&gt;" style="text;html=1;strokeColor=none;fillColor=none;align=center;verticalAlign=middle;whiteSpace=wrap;rounded=0;fontSize=16;" parent="1" vertex="1">
          <mxGeometry x="133.5" y="1499" width="55.5" height="32" as="geometry" />
        </mxCell>
        <mxCell id="Grx1fgmfP-nwtvqjVRt4-46" value="&lt;font style=&quot;font-size: 11px;&quot;&gt;accesibilidad&lt;/font&gt;" style="text;html=1;strokeColor=none;fillColor=none;align=center;verticalAlign=middle;whiteSpace=wrap;rounded=0;fontSize=16;" parent="1" vertex="1">
          <mxGeometry x="201" y="1500" width="60" height="30" as="geometry" />
        </mxCell>
        <mxCell id="Grx1fgmfP-nwtvqjVRt4-47" value="" style="shape=umlActor;verticalLabelPosition=bottom;verticalAlign=top;html=1;outlineConnect=0;" parent="1" vertex="1">
          <mxGeometry x="326.5" y="1504.99" width="11" height="25" as="geometry" />
        </mxCell>
        <mxCell id="Grx1fgmfP-nwtvqjVRt4-48" value="" style="rounded=1;whiteSpace=wrap;html=1;shadow=1;fontColor=#999999;fillColor=#BABABA;collapsible=0;dropTarget=0;container=0;backgroundOutline=0;movableLabel=0;autosize=0;fixedWidth=0;resizeWidth=1;resizeHeight=1;" parent="1" vertex="1">
          <mxGeometry x="97.5" y="1595" width="205" height="223" as="geometry" />
        </mxCell>
        <mxCell id="Grx1fgmfP-nwtvqjVRt4-49" value="" style="rounded=1;whiteSpace=wrap;html=1;shadow=0;arcSize=15;" parent="1" vertex="1">
          <mxGeometry x="97" y="1595" width="205" height="183" as="geometry" />
        </mxCell>
        <mxCell id="Grx1fgmfP-nwtvqjVRt4-50" value="" style="rounded=0;whiteSpace=wrap;html=1;fillColor=#D9D9D9;" parent="1" vertex="1">
          <mxGeometry x="0.5" y="1863" width="400" height="93" as="geometry" />
        </mxCell>
        <mxCell id="Grx1fgmfP-nwtvqjVRt4-51" value="EGym" style="text;html=1;strokeColor=none;fillColor=none;align=center;verticalAlign=middle;whiteSpace=wrap;rounded=0;fontSize=16;" parent="1" vertex="1">
          <mxGeometry x="148" y="1875" width="110" height="30" as="geometry" />
        </mxCell>
        <mxCell id="Grx1fgmfP-nwtvqjVRt4-52" value="" style="endArrow=none;html=1;rounded=0;fontSize=12;startSize=8;endSize=8;curved=1;entryX=1;entryY=1;entryDx=0;entryDy=0;exitX=0;exitY=1;exitDx=0;exitDy=0;" parent="1" source="Grx1fgmfP-nwtvqjVRt4-51" target="Grx1fgmfP-nwtvqjVRt4-51" edge="1">
          <mxGeometry width="50" height="50" relative="1" as="geometry">
            <mxPoint x="170.5" y="1963" as="sourcePoint" />
            <mxPoint x="220.5" y="1913" as="targetPoint" />
          </mxGeometry>
        </mxCell>
        <mxCell id="Grx1fgmfP-nwtvqjVRt4-53" value="Ln" style="ellipse;whiteSpace=wrap;html=1;aspect=fixed;fontSize=16;" parent="1" vertex="1">
          <mxGeometry x="192.5" y="1916" width="25" height="25" as="geometry" />
        </mxCell>
        <mxCell id="Grx1fgmfP-nwtvqjVRt4-54" value="Tw" style="ellipse;whiteSpace=wrap;html=1;aspect=fixed;fontSize=16;" parent="1" vertex="1">
          <mxGeometry x="233" y="1916" width="25" height="25" as="geometry" />
        </mxCell>
        <mxCell id="Grx1fgmfP-nwtvqjVRt4-55" value="Fb" style="ellipse;whiteSpace=wrap;html=1;aspect=fixed;fontSize=16;" parent="1" vertex="1">
          <mxGeometry x="151.5" y="1916" width="25" height="25" as="geometry" />
        </mxCell>
        <mxCell id="Grx1fgmfP-nwtvqjVRt4-56" value="Yt" style="ellipse;whiteSpace=wrap;html=1;aspect=fixed;fontSize=16;" parent="1" vertex="1">
          <mxGeometry x="273.25" y="1916" width="25" height="25" as="geometry" />
        </mxCell>
        <mxCell id="Grx1fgmfP-nwtvqjVRt4-57" value="In" style="ellipse;whiteSpace=wrap;html=1;aspect=fixed;fontSize=16;" parent="1" vertex="1">
          <mxGeometry x="110.5" y="1916" width="25" height="25" as="geometry" />
        </mxCell>
        <mxCell id="Grx1fgmfP-nwtvqjVRt4-58" value="" style="rounded=0;whiteSpace=wrap;html=1;fillColor=#B3B3B3;" parent="1" vertex="1">
          <mxGeometry x="0.5" y="1956" width="400" height="23" as="geometry" />
        </mxCell>
        <mxCell id="Grx1fgmfP-nwtvqjVRt4-59" value="&lt;font size=&quot;1&quot;&gt;Miquel Rodrigo Navarro | @Copyright | www.egym.com | v.01&lt;/font&gt;" style="text;html=1;strokeColor=none;fillColor=none;align=left;verticalAlign=middle;whiteSpace=wrap;rounded=0;" parent="1" vertex="1">
          <mxGeometry x="5.5" y="1952.5" width="307.5" height="30" as="geometry" />
        </mxCell>
        <mxCell id="Grx1fgmfP-nwtvqjVRt4-60" value="" style="rounded=1;whiteSpace=wrap;html=1;shadow=0.5;arcSize=50;fillColor=#000000000000000;" parent="1" vertex="1">
          <mxGeometry x="165.5" y="1791" width="75" height="20" as="geometry" />
        </mxCell>
        <mxCell id="Grx1fgmfP-nwtvqjVRt4-61" value="" style="rounded=1;whiteSpace=wrap;html=1;shadow=0.5;arcSize=50;fillColor=#EDEDED;" parent="1" vertex="1">
          <mxGeometry x="164" y="1790" width="75" height="20" as="geometry" />
        </mxCell>
        <mxCell id="Grx1fgmfP-nwtvqjVRt4-62" value="ENVIAR" style="text;html=1;strokeColor=none;fillColor=none;align=center;verticalAlign=middle;whiteSpace=wrap;rounded=0;fontSize=9;fontStyle=1" parent="1" vertex="1">
          <mxGeometry x="160.5" y="1795" width="79" height="10" as="geometry" />
        </mxCell>
        <mxCell id="Grx1fgmfP-nwtvqjVRt4-85" value="" style="rounded=0;whiteSpace=wrap;html=1;" parent="1" vertex="1">
          <mxGeometry x="139.5" y="1628" width="120" height="89" as="geometry" />
        </mxCell>
        <mxCell id="Grx1fgmfP-nwtvqjVRt4-87" value="Escribe aquÃ­ tu valoraciÃ³n" style="text;html=1;strokeColor=none;fillColor=none;align=left;verticalAlign=middle;whiteSpace=wrap;rounded=0;" parent="1" vertex="1">
          <mxGeometry x="142.5" y="1631" width="109.5" height="30" as="geometry" />
        </mxCell>
        <mxCell id="Grx1fgmfP-nwtvqjVRt4-91" value="" style="verticalLabelPosition=bottom;verticalAlign=top;html=1;shape=mxgraph.basic.star" parent="1" vertex="1">
          <mxGeometry x="192.75" y="1738" width="14.5" height="13" as="geometry" />
        </mxCell>
        <mxCell id="Grx1fgmfP-nwtvqjVRt4-94" value="" style="verticalLabelPosition=bottom;verticalAlign=top;html=1;shape=mxgraph.basic.star" parent="1" vertex="1">
          <mxGeometry x="173.5" y="1738" width="14.5" height="13" as="geometry" />
        </mxCell>
        <mxCell id="Grx1fgmfP-nwtvqjVRt4-95" value="" style="verticalLabelPosition=bottom;verticalAlign=top;html=1;shape=mxgraph.basic.star" parent="1" vertex="1">
          <mxGeometry x="154" y="1738" width="14.5" height="13" as="geometry" />
        </mxCell>
        <mxCell id="Grx1fgmfP-nwtvqjVRt4-97" value="" style="verticalLabelPosition=bottom;verticalAlign=top;html=1;shape=mxgraph.basic.star" parent="1" vertex="1">
          <mxGeometry x="212.5" y="1738" width="14.5" height="13" as="geometry" />
        </mxCell>
        <mxCell id="Grx1fgmfP-nwtvqjVRt4-98" value="" style="verticalLabelPosition=bottom;verticalAlign=top;html=1;shape=mxgraph.basic.star" parent="1" vertex="1">
          <mxGeometry x="232.5" y="1738" width="14.5" height="13" as="geometry" />
        </mxCell>
        <mxCell id="Grx1fgmfP-nwtvqjVRt4-100" value="" style="rounded=0;whiteSpace=wrap;html=1;gradientColor=#e3e3e3;gradientDirection=radial;" parent="1" vertex="1">
          <mxGeometry x="1320" y="36" width="400" height="294" as="geometry" />
        </mxCell>
        <mxCell id="Grx1fgmfP-nwtvqjVRt4-101" value="" style="shape=document;whiteSpace=wrap;html=1;boundedLbl=1;fillColor=#FAFAFA;" parent="1" vertex="1">
          <mxGeometry x="1320" width="400" height="101" as="geometry" />
        </mxCell>
        <mxCell id="Grx1fgmfP-nwtvqjVRt4-102" value="&lt;font style=&quot;font-size: 28px;&quot;&gt;&lt;b&gt;e&lt;/b&gt;Gym&lt;/font&gt;" style="text;html=1;strokeColor=none;fillColor=none;align=center;verticalAlign=middle;whiteSpace=wrap;rounded=0;fontSize=16;" parent="1" vertex="1">
          <mxGeometry x="1475" y="10" width="90" height="40" as="geometry" />
        </mxCell>
        <mxCell id="Grx1fgmfP-nwtvqjVRt4-103" value="&lt;font style=&quot;font-size: 11px;&quot;&gt;calculadora&lt;/font&gt;" style="text;html=1;strokeColor=none;fillColor=none;align=center;verticalAlign=middle;whiteSpace=wrap;rounded=0;fontSize=16;" parent="1" vertex="1">
          <mxGeometry x="1337" y="52" width="60" height="30" as="geometry" />
        </mxCell>
        <mxCell id="Grx1fgmfP-nwtvqjVRt4-104" value="&lt;span style=&quot;font-size: 11px;&quot;&gt;deporte&lt;/span&gt;" style="text;html=1;strokeColor=none;fillColor=none;align=center;verticalAlign=middle;whiteSpace=wrap;rounded=0;fontSize=16;" parent="1" vertex="1">
          <mxGeometry x="1393.5" y="52" width="60" height="30" as="geometry" />
        </mxCell>
        <mxCell id="Grx1fgmfP-nwtvqjVRt4-105" value="&lt;font style=&quot;font-size: 10px;&quot;&gt;Idioma&lt;/font&gt;" style="text;html=1;strokeColor=none;fillColor=none;align=center;verticalAlign=middle;whiteSpace=wrap;rounded=0;fontSize=16;" parent="1" vertex="1">
          <mxGeometry x="1665" y="52" width="60" height="30" as="geometry" />
        </mxCell>
        <mxCell id="Grx1fgmfP-nwtvqjVRt4-106" value="" style="triangle;whiteSpace=wrap;html=1;fontSize=16;rotation=90;fillColor=#000000;" parent="1" vertex="1">
          <mxGeometry x="1712.27" y="68.74000000000001" width="1.59" height="2.63" as="geometry" />
        </mxCell>
        <mxCell id="Grx1fgmfP-nwtvqjVRt4-107" value="" style="triangle;whiteSpace=wrap;html=1;fontSize=16;rotation=90;fillColor=#000000;" parent="1" vertex="1">
          <mxGeometry x="1444.6799999999998" y="68.18000000000006" width="2.32" height="2.63" as="geometry" />
        </mxCell>
        <mxCell id="Grx1fgmfP-nwtvqjVRt4-108" value="&lt;font style=&quot;font-size: 9px;&quot;&gt;Usuario&lt;/font&gt;" style="text;html=1;strokeColor=none;fillColor=none;align=center;verticalAlign=middle;whiteSpace=wrap;rounded=0;fontSize=16;" parent="1" vertex="1">
          <mxGeometry x="1622" y="23" width="60" height="30" as="geometry" />
        </mxCell>
        <mxCell id="Grx1fgmfP-nwtvqjVRt4-109" value="" style="ellipse;whiteSpace=wrap;html=1;aspect=fixed;" parent="1" vertex="1">
          <mxGeometry x="1634.5" y="52" width="35" height="35" as="geometry" />
        </mxCell>
        <mxCell id="Grx1fgmfP-nwtvqjVRt4-110" value="&lt;font style=&quot;font-size: 11px;&quot;&gt;mapa web&lt;/font&gt;" style="text;html=1;strokeColor=none;fillColor=none;align=center;verticalAlign=middle;whiteSpace=wrap;rounded=0;fontSize=16;" parent="1" vertex="1">
          <mxGeometry x="1453.5" y="51" width="55.5" height="32" as="geometry" />
        </mxCell>
        <mxCell id="Grx1fgmfP-nwtvqjVRt4-111" value="&lt;font style=&quot;font-size: 11px;&quot;&gt;accesibilidad&lt;/font&gt;" style="text;html=1;strokeColor=none;fillColor=none;align=center;verticalAlign=middle;whiteSpace=wrap;rounded=0;fontSize=16;" parent="1" vertex="1">
          <mxGeometry x="1521" y="52" width="60" height="30" as="geometry" />
        </mxCell>
        <mxCell id="Grx1fgmfP-nwtvqjVRt4-112" value="" style="shape=umlActor;verticalLabelPosition=bottom;verticalAlign=top;html=1;outlineConnect=0;" parent="1" vertex="1">
          <mxGeometry x="1646.5" y="56.99000000000001" width="11" height="25" as="geometry" />
        </mxCell>
        <mxCell id="Grx1fgmfP-nwtvqjVRt4-113" value="" style="rounded=0;whiteSpace=wrap;html=1;fillColor=#D9D9D9;" parent="1" vertex="1">
          <mxGeometry x="1320.5" y="330" width="400" height="93" as="geometry" />
        </mxCell>
        <mxCell id="Grx1fgmfP-nwtvqjVRt4-114" value="EGym" style="text;html=1;strokeColor=none;fillColor=none;align=center;verticalAlign=middle;whiteSpace=wrap;rounded=0;fontSize=16;" parent="1" vertex="1">
          <mxGeometry x="1468" y="342" width="110" height="30" as="geometry" />
        </mxCell>
        <mxCell id="Grx1fgmfP-nwtvqjVRt4-115" value="" style="endArrow=none;html=1;rounded=0;fontSize=12;startSize=8;endSize=8;curved=1;entryX=1;entryY=1;entryDx=0;entryDy=0;exitX=0;exitY=1;exitDx=0;exitDy=0;" parent="1" source="Grx1fgmfP-nwtvqjVRt4-114" target="Grx1fgmfP-nwtvqjVRt4-114" edge="1">
          <mxGeometry width="50" height="50" relative="1" as="geometry">
            <mxPoint x="1490.5" y="430" as="sourcePoint" />
            <mxPoint x="1540.5" y="380" as="targetPoint" />
          </mxGeometry>
        </mxCell>
        <mxCell id="Grx1fgmfP-nwtvqjVRt4-116" value="Ln" style="ellipse;whiteSpace=wrap;html=1;aspect=fixed;fontSize=16;" parent="1" vertex="1">
          <mxGeometry x="1512.5" y="383" width="25" height="25" as="geometry" />
        </mxCell>
        <mxCell id="Grx1fgmfP-nwtvqjVRt4-117" value="Tw" style="ellipse;whiteSpace=wrap;html=1;aspect=fixed;fontSize=16;" parent="1" vertex="1">
          <mxGeometry x="1553" y="383" width="25" height="25" as="geometry" />
        </mxCell>
        <mxCell id="Grx1fgmfP-nwtvqjVRt4-118" value="Fb" style="ellipse;whiteSpace=wrap;html=1;aspect=fixed;fontSize=16;" parent="1" vertex="1">
          <mxGeometry x="1471.5" y="383" width="25" height="25" as="geometry" />
        </mxCell>
        <mxCell id="Grx1fgmfP-nwtvqjVRt4-119" value="Yt" style="ellipse;whiteSpace=wrap;html=1;aspect=fixed;fontSize=16;" parent="1" vertex="1">
          <mxGeometry x="1593.25" y="383" width="25" height="25" as="geometry" />
        </mxCell>
        <mxCell id="Grx1fgmfP-nwtvqjVRt4-120" value="In" style="ellipse;whiteSpace=wrap;html=1;aspect=fixed;fontSize=16;" parent="1" vertex="1">
          <mxGeometry x="1430.5" y="383" width="25" height="25" as="geometry" />
        </mxCell>
        <mxCell id="Grx1fgmfP-nwtvqjVRt4-121" value="" style="rounded=0;whiteSpace=wrap;html=1;fillColor=#B3B3B3;" parent="1" vertex="1">
          <mxGeometry x="1320.5" y="423" width="400" height="23" as="geometry" />
        </mxCell>
        <mxCell id="Grx1fgmfP-nwtvqjVRt4-122" value="&lt;font size=&quot;1&quot;&gt;Miquel Rodrigo Navarro | @Copyright | www.egym.com | v.01&lt;/font&gt;" style="text;html=1;strokeColor=none;fillColor=none;align=left;verticalAlign=middle;whiteSpace=wrap;rounded=0;" parent="1" vertex="1">
          <mxGeometry x="1323" y="420" width="307.5" height="30" as="geometry" />
        </mxCell>
        <mxCell id="Grx1fgmfP-nwtvqjVRt4-123" value="Usuario" style="text;html=1;strokeColor=none;fillColor=none;align=left;verticalAlign=middle;whiteSpace=wrap;rounded=0;fontSize=11;fontStyle=1" parent="1" vertex="1">
          <mxGeometry x="1337" y="123" width="53" height="30" as="geometry" />
        </mxCell>
        <mxCell id="Grx1fgmfP-nwtvqjVRt4-124" value="nombre1" style="text;html=1;strokeColor=none;fillColor=none;align=left;verticalAlign=middle;whiteSpace=wrap;rounded=0;fontSize=10;fontStyle=0" parent="1" vertex="1">
          <mxGeometry x="1337" y="151" width="53" height="30" as="geometry" />
        </mxCell>
        <mxCell id="Grx1fgmfP-nwtvqjVRt4-133" value="Mail" style="text;html=1;strokeColor=none;fillColor=none;align=left;verticalAlign=middle;whiteSpace=wrap;rounded=0;fontSize=11;fontStyle=1" parent="1" vertex="1">
          <mxGeometry x="1407.5" y="123" width="64" height="30" as="geometry" />
        </mxCell>
        <mxCell id="Grx1fgmfP-nwtvqjVRt4-134" value="mail1@gmail.com" style="text;html=1;strokeColor=none;fillColor=none;align=left;verticalAlign=middle;whiteSpace=wrap;rounded=0;fontSize=10;fontStyle=0" parent="1" vertex="1">
          <mxGeometry x="1405" y="151" width="85" height="30" as="geometry" />
        </mxCell>
        <mxCell id="Grx1fgmfP-nwtvqjVRt4-135" value="IBAN" style="text;html=1;strokeColor=none;fillColor=none;align=left;verticalAlign=middle;whiteSpace=wrap;rounded=0;fontSize=10;fontStyle=1" parent="1" vertex="1">
          <mxGeometry x="1496.5" y="123" width="64" height="30" as="geometry" />
        </mxCell>
        <mxCell id="Grx1fgmfP-nwtvqjVRt4-136" value="ES21 1465 0100 72 2030876293" style="text;html=1;strokeColor=none;fillColor=none;align=left;verticalAlign=middle;whiteSpace=wrap;rounded=0;fontSize=10;fontStyle=0" parent="1" vertex="1">
          <mxGeometry x="1496" y="151" width="84" height="30" as="geometry" />
        </mxCell>
        <mxCell id="Grx1fgmfP-nwtvqjVRt4-137" value="DNI" style="text;html=1;strokeColor=none;fillColor=none;align=left;verticalAlign=middle;whiteSpace=wrap;rounded=0;fontSize=9;" parent="1" vertex="1">
          <mxGeometry x="656.86" y="310" width="73.14" height="10" as="geometry" />
        </mxCell>
        <mxCell id="Grx1fgmfP-nwtvqjVRt4-138" value="" style="endArrow=none;html=1;rounded=0;exitX=0;exitY=1;exitDx=0;exitDy=0;entryX=1;entryY=1;entryDx=0;entryDy=0;" parent="1" source="Grx1fgmfP-nwtvqjVRt4-137" target="Grx1fgmfP-nwtvqjVRt4-137" edge="1">
          <mxGeometry width="50" height="50" relative="1" as="geometry">
            <mxPoint x="657.5" y="322" as="sourcePoint" />
            <mxPoint x="721.25" y="322" as="targetPoint" />
          </mxGeometry>
        </mxCell>
        <mxCell id="4HA8udhoHXV0gb3-ap3c-2" value="" style="verticalLabelPosition=bottom;verticalAlign=top;html=1;shape=mxgraph.basic.tick;fontSize=16;" parent="1" vertex="1">
          <mxGeometry x="1597.5" y="156.5" width="20.75" height="19" as="geometry" />
        </mxCell>
        <mxCell id="4HA8udhoHXV0gb3-ap3c-3" value="" style="verticalLabelPosition=bottom;verticalAlign=top;html=1;shape=mxgraph.basic.x;fontSize=16;" parent="1" vertex="1">
          <mxGeometry x="1634.5" y="157.56" width="14.5" height="16.88" as="geometry" />
        </mxCell>
        <mxCell id="4HA8udhoHXV0gb3-ap3c-4" value="nombre2" style="text;html=1;strokeColor=none;fillColor=none;align=left;verticalAlign=middle;whiteSpace=wrap;rounded=0;fontSize=10;fontStyle=0" parent="1" vertex="1">
          <mxGeometry x="1337" y="180" width="53" height="30" as="geometry" />
        </mxCell>
        <mxCell id="4HA8udhoHXV0gb3-ap3c-5" value="mail2@gmail.com" style="text;html=1;strokeColor=none;fillColor=none;align=left;verticalAlign=middle;whiteSpace=wrap;rounded=0;fontSize=10;fontStyle=0" parent="1" vertex="1">
          <mxGeometry x="1405" y="180" width="85" height="30" as="geometry" />
        </mxCell>
        <mxCell id="4HA8udhoHXV0gb3-ap3c-6" value="ES21 1465 0100 72 2030876293" style="text;html=1;strokeColor=none;fillColor=none;align=left;verticalAlign=middle;whiteSpace=wrap;rounded=0;fontSize=10;fontStyle=0" parent="1" vertex="1">
          <mxGeometry x="1497" y="180" width="84" height="30" as="geometry" />
        </mxCell>
        <mxCell id="4HA8udhoHXV0gb3-ap3c-7" value="" style="verticalLabelPosition=bottom;verticalAlign=top;html=1;shape=mxgraph.basic.tick;fontSize=16;" parent="1" vertex="1">
          <mxGeometry x="1597.5" y="185.5" width="20.75" height="19" as="geometry" />
        </mxCell>
        <mxCell id="4HA8udhoHXV0gb3-ap3c-8" value="" style="verticalLabelPosition=bottom;verticalAlign=top;html=1;shape=mxgraph.basic.x;fontSize=16;" parent="1" vertex="1">
          <mxGeometry x="1635" y="186.56" width="14.5" height="16.88" as="geometry" />
        </mxCell>
        <mxCell id="4HA8udhoHXV0gb3-ap3c-9" value="nombre3" style="text;html=1;strokeColor=none;fillColor=none;align=left;verticalAlign=middle;whiteSpace=wrap;rounded=0;fontSize=10;fontStyle=0" parent="1" vertex="1">
          <mxGeometry x="1337" y="210" width="53" height="30" as="geometry" />
        </mxCell>
        <mxCell id="4HA8udhoHXV0gb3-ap3c-10" value="mail3@gmail.com" style="text;html=1;strokeColor=none;fillColor=none;align=left;verticalAlign=middle;whiteSpace=wrap;rounded=0;fontSize=10;fontStyle=0" parent="1" vertex="1">
          <mxGeometry x="1405" y="210" width="85" height="30" as="geometry" />
        </mxCell>
        <mxCell id="4HA8udhoHXV0gb3-ap3c-11" value="ES21 1465 0100 72 2030876293" style="text;html=1;strokeColor=none;fillColor=none;align=left;verticalAlign=middle;whiteSpace=wrap;rounded=0;fontSize=10;fontStyle=0" parent="1" vertex="1">
          <mxGeometry x="1497" y="210" width="84" height="30" as="geometry" />
        </mxCell>
        <mxCell id="4HA8udhoHXV0gb3-ap3c-12" value="" style="verticalLabelPosition=bottom;verticalAlign=top;html=1;shape=mxgraph.basic.tick;fontSize=16;" parent="1" vertex="1">
          <mxGeometry x="1597.5" y="215.5" width="20.75" height="19" as="geometry" />
        </mxCell>
        <mxCell id="4HA8udhoHXV0gb3-ap3c-13" value="" style="verticalLabelPosition=bottom;verticalAlign=top;html=1;shape=mxgraph.basic.x;fontSize=16;" parent="1" vertex="1">
          <mxGeometry x="1635" y="216.56" width="14.5" height="16.88" as="geometry" />
        </mxCell>
        <mxCell id="4HA8udhoHXV0gb3-ap3c-14" value="nombre4" style="text;html=1;strokeColor=none;fillColor=none;align=left;verticalAlign=middle;whiteSpace=wrap;rounded=0;fontSize=10;fontStyle=0" parent="1" vertex="1">
          <mxGeometry x="1337" y="240" width="53" height="30" as="geometry" />
        </mxCell>
        <mxCell id="4HA8udhoHXV0gb3-ap3c-15" value="mail4@gmail.com" style="text;html=1;strokeColor=none;fillColor=none;align=left;verticalAlign=middle;whiteSpace=wrap;rounded=0;fontSize=10;fontStyle=0" parent="1" vertex="1">
          <mxGeometry x="1405" y="240" width="85" height="30" as="geometry" />
        </mxCell>
        <mxCell id="4HA8udhoHXV0gb3-ap3c-16" value="ES21 1465 0100 72 2030876293" style="text;html=1;strokeColor=none;fillColor=none;align=left;verticalAlign=middle;whiteSpace=wrap;rounded=0;fontSize=10;fontStyle=0" parent="1" vertex="1">
          <mxGeometry x="1497" y="240" width="84" height="30" as="geometry" />
        </mxCell>
        <mxCell id="4HA8udhoHXV0gb3-ap3c-17" value="" style="verticalLabelPosition=bottom;verticalAlign=top;html=1;shape=mxgraph.basic.tick;fontSize=16;" parent="1" vertex="1">
          <mxGeometry x="1597.5" y="245.5" width="20.75" height="19" as="geometry" />
        </mxCell>
        <mxCell id="4HA8udhoHXV0gb3-ap3c-18" value="" style="verticalLabelPosition=bottom;verticalAlign=top;html=1;shape=mxgraph.basic.x;fontSize=16;" parent="1" vertex="1">
          <mxGeometry x="1635" y="246.56" width="14.5" height="16.88" as="geometry" />
        </mxCell>
        <mxCell id="4HA8udhoHXV0gb3-ap3c-19" value="nombre5" style="text;html=1;strokeColor=none;fillColor=none;align=left;verticalAlign=middle;whiteSpace=wrap;rounded=0;fontSize=10;fontStyle=0" parent="1" vertex="1">
          <mxGeometry x="1337" y="270" width="53" height="30" as="geometry" />
        </mxCell>
        <mxCell id="4HA8udhoHXV0gb3-ap3c-20" value="mail5@gmail.com" style="text;html=1;strokeColor=none;fillColor=none;align=left;verticalAlign=middle;whiteSpace=wrap;rounded=0;fontSize=10;fontStyle=0" parent="1" vertex="1">
          <mxGeometry x="1403.34" y="270" width="85" height="30" as="geometry" />
        </mxCell>
        <mxCell id="4HA8udhoHXV0gb3-ap3c-21" value="ES21 1465 0100 72 2030876293" style="text;html=1;strokeColor=none;fillColor=none;align=left;verticalAlign=middle;whiteSpace=wrap;rounded=0;fontSize=10;fontStyle=0" parent="1" vertex="1">
          <mxGeometry x="1497" y="270" width="84" height="30" as="geometry" />
        </mxCell>
        <mxCell id="4HA8udhoHXV0gb3-ap3c-22" value="" style="verticalLabelPosition=bottom;verticalAlign=top;html=1;shape=mxgraph.basic.tick;fontSize=16;" parent="1" vertex="1">
          <mxGeometry x="1595.37" y="275.5" width="20.75" height="19" as="geometry" />
        </mxCell>
        <mxCell id="4HA8udhoHXV0gb3-ap3c-23" value="" style="verticalLabelPosition=bottom;verticalAlign=top;html=1;shape=mxgraph.basic.x;fontSize=16;" parent="1" vertex="1">
          <mxGeometry x="1635" y="276.56" width="14.5" height="16.88" as="geometry" />
        </mxCell>
        <mxCell id="4HA8udhoHXV0gb3-ap3c-24" value="" style="rounded=0;whiteSpace=wrap;html=1;gradientColor=#e3e3e3;gradientDirection=radial;" parent="1" vertex="1">
          <mxGeometry x="1320.5" y="680" width="400" height="344" as="geometry" />
        </mxCell>
        <mxCell id="4HA8udhoHXV0gb3-ap3c-25" value="" style="shape=document;whiteSpace=wrap;html=1;boundedLbl=1;fillColor=#FAFAFA;" parent="1" vertex="1">
          <mxGeometry x="1320.5" y="644" width="400" height="101" as="geometry" />
        </mxCell>
        <mxCell id="4HA8udhoHXV0gb3-ap3c-26" value="&lt;font style=&quot;font-size: 28px;&quot;&gt;&lt;b&gt;e&lt;/b&gt;Gym&lt;/font&gt;" style="text;html=1;strokeColor=none;fillColor=none;align=center;verticalAlign=middle;whiteSpace=wrap;rounded=0;fontSize=16;" parent="1" vertex="1">
          <mxGeometry x="1475.5" y="654" width="90" height="40" as="geometry" />
        </mxCell>
        <mxCell id="4HA8udhoHXV0gb3-ap3c-27" value="&lt;font style=&quot;font-size: 11px;&quot;&gt;calculadora&lt;/font&gt;" style="text;html=1;strokeColor=none;fillColor=none;align=center;verticalAlign=middle;whiteSpace=wrap;rounded=0;fontSize=16;" parent="1" vertex="1">
          <mxGeometry x="1337.5" y="696" width="60" height="30" as="geometry" />
        </mxCell>
        <mxCell id="4HA8udhoHXV0gb3-ap3c-28" value="&lt;span style=&quot;font-size: 11px;&quot;&gt;deporte&lt;/span&gt;" style="text;html=1;strokeColor=none;fillColor=none;align=center;verticalAlign=middle;whiteSpace=wrap;rounded=0;fontSize=16;" parent="1" vertex="1">
          <mxGeometry x="1394" y="696" width="60" height="30" as="geometry" />
        </mxCell>
        <mxCell id="4HA8udhoHXV0gb3-ap3c-29" value="&lt;font style=&quot;font-size: 10px;&quot;&gt;Idioma&lt;/font&gt;" style="text;html=1;strokeColor=none;fillColor=none;align=center;verticalAlign=middle;whiteSpace=wrap;rounded=0;fontSize=16;" parent="1" vertex="1">
          <mxGeometry x="1665.5" y="696" width="60" height="30" as="geometry" />
        </mxCell>
        <mxCell id="4HA8udhoHXV0gb3-ap3c-30" value="" style="triangle;whiteSpace=wrap;html=1;fontSize=16;rotation=90;fillColor=#000000;" parent="1" vertex="1">
          <mxGeometry x="1712.77" y="712.74" width="1.59" height="2.63" as="geometry" />
        </mxCell>
        <mxCell id="4HA8udhoHXV0gb3-ap3c-31" value="" style="triangle;whiteSpace=wrap;html=1;fontSize=16;rotation=90;fillColor=#000000;" parent="1" vertex="1">
          <mxGeometry x="1445.1799999999998" y="712.1800000000001" width="2.32" height="2.63" as="geometry" />
        </mxCell>
        <mxCell id="4HA8udhoHXV0gb3-ap3c-32" value="&lt;font style=&quot;font-size: 9px;&quot;&gt;Usuario&lt;/font&gt;" style="text;html=1;strokeColor=none;fillColor=none;align=center;verticalAlign=middle;whiteSpace=wrap;rounded=0;fontSize=16;" parent="1" vertex="1">
          <mxGeometry x="1622.5" y="667" width="60" height="30" as="geometry" />
        </mxCell>
        <mxCell id="4HA8udhoHXV0gb3-ap3c-33" value="" style="ellipse;whiteSpace=wrap;html=1;aspect=fixed;" parent="1" vertex="1">
          <mxGeometry x="1635" y="696" width="35" height="35" as="geometry" />
        </mxCell>
        <mxCell id="4HA8udhoHXV0gb3-ap3c-34" value="&lt;font style=&quot;font-size: 11px;&quot;&gt;mapa web&lt;/font&gt;" style="text;html=1;strokeColor=none;fillColor=none;align=center;verticalAlign=middle;whiteSpace=wrap;rounded=0;fontSize=16;" parent="1" vertex="1">
          <mxGeometry x="1455" y="694" width="55.5" height="32" as="geometry" />
        </mxCell>
        <mxCell id="4HA8udhoHXV0gb3-ap3c-35" value="&lt;font style=&quot;font-size: 11px;&quot;&gt;accesibilidad&lt;/font&gt;" style="text;html=1;strokeColor=none;fillColor=none;align=center;verticalAlign=middle;whiteSpace=wrap;rounded=0;fontSize=16;" parent="1" vertex="1">
          <mxGeometry x="1521.5" y="695" width="60" height="30" as="geometry" />
        </mxCell>
        <mxCell id="4HA8udhoHXV0gb3-ap3c-36" value="" style="shape=umlActor;verticalLabelPosition=bottom;verticalAlign=top;html=1;outlineConnect=0;" parent="1" vertex="1">
          <mxGeometry x="1647" y="700.99" width="11" height="25" as="geometry" />
        </mxCell>
        <mxCell id="4HA8udhoHXV0gb3-ap3c-37" value="" style="rounded=1;whiteSpace=wrap;html=1;shadow=1;fontColor=#999999;fillColor=#BABABA;collapsible=0;dropTarget=0;container=0;backgroundOutline=0;movableLabel=0;autosize=0;fixedWidth=0;resizeWidth=1;resizeHeight=1;" parent="1" vertex="1">
          <mxGeometry x="1418" y="779" width="205" height="190" as="geometry" />
        </mxCell>
        <mxCell id="4HA8udhoHXV0gb3-ap3c-38" value="" style="ellipse;whiteSpace=wrap;html=1;aspect=fixed;" parent="1" vertex="1">
          <mxGeometry x="1439.75" y="799.5" width="47.5" height="47.5" as="geometry" />
        </mxCell>
        <mxCell id="4HA8udhoHXV0gb3-ap3c-39" value="" style="rounded=1;whiteSpace=wrap;html=1;shadow=0;arcSize=22;" parent="1" vertex="1">
          <mxGeometry x="1417.5" y="851" width="205" height="118" as="geometry" />
        </mxCell>
        <mxCell id="4HA8udhoHXV0gb3-ap3c-40" value="" style="rounded=1;whiteSpace=wrap;html=1;shadow=0.5;arcSize=50;fillColor=#000000000000000;" parent="1" vertex="1">
          <mxGeometry x="1425" y="882" width="75" height="20" as="geometry" />
        </mxCell>
        <mxCell id="4HA8udhoHXV0gb3-ap3c-42" value="Foto" style="text;html=1;strokeColor=none;fillColor=none;align=center;verticalAlign=middle;whiteSpace=wrap;rounded=0;horizontal=1;fontSize=9;" parent="1" vertex="1">
          <mxGeometry x="1446" y="808.25" width="35" height="30" as="geometry" />
        </mxCell>
        <mxCell id="4HA8udhoHXV0gb3-ap3c-43" value="" style="rounded=1;whiteSpace=wrap;html=1;shadow=0.5;arcSize=50;fillColor=#EDEDED;" parent="1" vertex="1">
          <mxGeometry x="1424" y="881" width="75" height="20" as="geometry" />
        </mxCell>
        <mxCell id="4HA8udhoHXV0gb3-ap3c-44" value="Cerrar sesiÃ³n" style="text;html=1;strokeColor=none;fillColor=none;align=center;verticalAlign=middle;whiteSpace=wrap;rounded=0;fontSize=9;fontStyle=1" parent="1" vertex="1">
          <mxGeometry x="1420" y="886" width="79" height="10" as="geometry" />
        </mxCell>
        <mxCell id="4HA8udhoHXV0gb3-ap3c-48" value="" style="rounded=0;whiteSpace=wrap;html=1;fillColor=#D9D9D9;" parent="1" vertex="1">
          <mxGeometry x="1320.5" y="1024" width="400" height="93" as="geometry" />
        </mxCell>
        <mxCell id="4HA8udhoHXV0gb3-ap3c-49" value="EGym" style="text;html=1;strokeColor=none;fillColor=none;align=center;verticalAlign=middle;whiteSpace=wrap;rounded=0;fontSize=16;" parent="1" vertex="1">
          <mxGeometry x="1468.5" y="1036" width="110" height="30" as="geometry" />
        </mxCell>
        <mxCell id="4HA8udhoHXV0gb3-ap3c-50" value="" style="endArrow=none;html=1;rounded=0;fontSize=12;startSize=8;endSize=8;curved=1;entryX=1;entryY=1;entryDx=0;entryDy=0;exitX=0;exitY=1;exitDx=0;exitDy=0;" parent="1" source="4HA8udhoHXV0gb3-ap3c-49" target="4HA8udhoHXV0gb3-ap3c-49" edge="1">
          <mxGeometry width="50" height="50" relative="1" as="geometry">
            <mxPoint x="1491" y="1124" as="sourcePoint" />
            <mxPoint x="1541" y="1074" as="targetPoint" />
          </mxGeometry>
        </mxCell>
        <mxCell id="4HA8udhoHXV0gb3-ap3c-51" value="Ln" style="ellipse;whiteSpace=wrap;html=1;aspect=fixed;fontSize=16;" parent="1" vertex="1">
          <mxGeometry x="1513" y="1077" width="25" height="25" as="geometry" />
        </mxCell>
        <mxCell id="4HA8udhoHXV0gb3-ap3c-52" value="Tw" style="ellipse;whiteSpace=wrap;html=1;aspect=fixed;fontSize=16;" parent="1" vertex="1">
          <mxGeometry x="1553.5" y="1077" width="25" height="25" as="geometry" />
        </mxCell>
        <mxCell id="4HA8udhoHXV0gb3-ap3c-53" value="Fb" style="ellipse;whiteSpace=wrap;html=1;aspect=fixed;fontSize=16;" parent="1" vertex="1">
          <mxGeometry x="1472" y="1077" width="25" height="25" as="geometry" />
        </mxCell>
        <mxCell id="4HA8udhoHXV0gb3-ap3c-54" value="Yt" style="ellipse;whiteSpace=wrap;html=1;aspect=fixed;fontSize=16;" parent="1" vertex="1">
          <mxGeometry x="1593.75" y="1077" width="25" height="25" as="geometry" />
        </mxCell>
        <mxCell id="4HA8udhoHXV0gb3-ap3c-55" value="In" style="ellipse;whiteSpace=wrap;html=1;aspect=fixed;fontSize=16;" parent="1" vertex="1">
          <mxGeometry x="1431" y="1077" width="25" height="25" as="geometry" />
        </mxCell>
        <mxCell id="4HA8udhoHXV0gb3-ap3c-56" value="" style="rounded=0;whiteSpace=wrap;html=1;fillColor=#B3B3B3;" parent="1" vertex="1">
          <mxGeometry x="1320.5" y="1117" width="400" height="23" as="geometry" />
        </mxCell>
        <mxCell id="4HA8udhoHXV0gb3-ap3c-57" value="&lt;font size=&quot;1&quot;&gt;Miquel Rodrigo Navarro | @Copyright | www.egym.com | v.01&lt;/font&gt;" style="text;html=1;strokeColor=none;fillColor=none;align=left;verticalAlign=middle;whiteSpace=wrap;rounded=0;" parent="1" vertex="1">
          <mxGeometry x="1323.5" y="1114" width="307.5" height="30" as="geometry" />
        </mxCell>
        <mxCell id="4HA8udhoHXV0gb3-ap3c-58" value="" style="whiteSpace=wrap;html=1;shape=mxgraph.basic.roundRectCallout;dx=8.69;dy=6;size=5;boundedLbl=1;fontSize=16;" parent="1" vertex="1">
          <mxGeometry x="1489" y="787" width="81" height="32" as="geometry" />
        </mxCell>
        <mxCell id="4HA8udhoHXV0gb3-ap3c-59" value="Nombre" style="text;html=1;strokeColor=none;fillColor=none;align=left;verticalAlign=middle;whiteSpace=wrap;rounded=0;fontSize=8;" parent="1" vertex="1">
          <mxGeometry x="1492.32" y="789.81" width="47.68" height="10" as="geometry" />
        </mxCell>
        <mxCell id="4HA8udhoHXV0gb3-ap3c-60" value="Apellido1" style="text;html=1;strokeColor=none;fillColor=none;align=left;verticalAlign=middle;whiteSpace=wrap;rounded=0;fontSize=8;" parent="1" vertex="1">
          <mxGeometry x="1492.32" y="800.37" width="37.68" height="10" as="geometry" />
        </mxCell>
        <mxCell id="4HA8udhoHXV0gb3-ap3c-61" value="Apellido2" style="text;html=1;strokeColor=none;fillColor=none;align=left;verticalAlign=middle;whiteSpace=wrap;rounded=0;fontSize=8;" parent="1" vertex="1">
          <mxGeometry x="1530" y="800.37" width="37.68" height="10" as="geometry" />
        </mxCell>
        <mxCell id="4HA8udhoHXV0gb3-ap3c-62" value="" style="endArrow=none;html=1;rounded=0;fontSize=12;startSize=8;endSize=8;curved=1;entryX=0.5;entryY=0;entryDx=0;entryDy=0;exitX=0.5;exitY=1;exitDx=0;exitDy=0;" parent="1" source="4HA8udhoHXV0gb3-ap3c-37" target="4HA8udhoHXV0gb3-ap3c-39" edge="1">
          <mxGeometry width="50" height="50" relative="1" as="geometry">
            <mxPoint x="1390" y="879" as="sourcePoint" />
            <mxPoint x="1440" y="829" as="targetPoint" />
          </mxGeometry>
        </mxCell>
        <mxCell id="4HA8udhoHXV0gb3-ap3c-63" value="NataciÃ³n" style="text;html=1;strokeColor=none;fillColor=none;align=left;verticalAlign=middle;whiteSpace=wrap;rounded=0;fontSize=9;" parent="1" vertex="1">
          <mxGeometry x="1521" y="862" width="41.87" height="10" as="geometry" />
        </mxCell>
        <mxCell id="4HA8udhoHXV0gb3-ap3c-64" value="Crossfit" style="text;html=1;strokeColor=none;fillColor=none;align=left;verticalAlign=middle;whiteSpace=wrap;rounded=0;fontSize=9;" parent="1" vertex="1">
          <mxGeometry x="1521" y="876" width="34.87" height="10" as="geometry" />
        </mxCell>
        <mxCell id="4HA8udhoHXV0gb3-ap3c-66" value="Cycling" style="text;html=1;strokeColor=none;fillColor=none;align=left;verticalAlign=middle;whiteSpace=wrap;rounded=0;fontSize=9;" parent="1" vertex="1">
          <mxGeometry x="1520.57" y="890" width="34.87" height="10" as="geometry" />
        </mxCell>
        <mxCell id="4HA8udhoHXV0gb3-ap3c-67" value="Boxeo" style="text;html=1;strokeColor=none;fillColor=none;align=left;verticalAlign=middle;whiteSpace=wrap;rounded=0;fontSize=9;" parent="1" vertex="1">
          <mxGeometry x="1521.3600000000001" y="904.32" width="31.28" height="10" as="geometry" />
        </mxCell>
        <mxCell id="4HA8udhoHXV0gb3-ap3c-68" value="Calistenia" style="text;html=1;strokeColor=none;fillColor=none;align=left;verticalAlign=middle;whiteSpace=wrap;rounded=0;fontSize=9;" parent="1" vertex="1">
          <mxGeometry x="1521.36" y="917.74" width="44" height="10" as="geometry" />
        </mxCell>
        <mxCell id="4HA8udhoHXV0gb3-ap3c-70" value="Principiante" style="text;html=1;strokeColor=none;fillColor=none;align=left;verticalAlign=middle;whiteSpace=wrap;rounded=0;fontSize=7;fontStyle=2" parent="1" vertex="1">
          <mxGeometry x="1565.5" y="862" width="54.5" height="10" as="geometry" />
        </mxCell>
        <mxCell id="4HA8udhoHXV0gb3-ap3c-71" value="Intermedio" style="text;html=1;strokeColor=none;fillColor=none;align=left;verticalAlign=middle;whiteSpace=wrap;rounded=0;fontSize=7;fontStyle=2" parent="1" vertex="1">
          <mxGeometry x="1565.5" y="917.74" width="54.5" height="10" as="geometry" />
        </mxCell>
        <mxCell id="4HA8udhoHXV0gb3-ap3c-72" value="Avanzado" style="text;html=1;strokeColor=none;fillColor=none;align=left;verticalAlign=middle;whiteSpace=wrap;rounded=0;fontSize=7;fontStyle=2" parent="1" vertex="1">
          <mxGeometry x="1565.5" y="904.32" width="54.5" height="10" as="geometry" />
        </mxCell>
        <mxCell id="4HA8udhoHXV0gb3-ap3c-73" value="Intermedio" style="text;html=1;strokeColor=none;fillColor=none;align=left;verticalAlign=middle;whiteSpace=wrap;rounded=0;fontSize=7;fontStyle=2" parent="1" vertex="1">
          <mxGeometry x="1565.5" y="890" width="54.5" height="10" as="geometry" />
        </mxCell>
        <mxCell id="4HA8udhoHXV0gb3-ap3c-74" value="Avanzado" style="text;html=1;strokeColor=none;fillColor=none;align=left;verticalAlign=middle;whiteSpace=wrap;rounded=0;fontSize=7;fontStyle=2" parent="1" vertex="1">
          <mxGeometry x="1565.5" y="876" width="54.5" height="10" as="geometry" />
        </mxCell>
        <mxCell id="4HA8udhoHXV0gb3-ap3c-75" value="" style="rounded=1;whiteSpace=wrap;html=1;shadow=0.5;arcSize=50;fillColor=#000000000000000;" parent="1" vertex="1">
          <mxGeometry x="1427" y="920" width="75" height="20" as="geometry" />
        </mxCell>
        <mxCell id="4HA8udhoHXV0gb3-ap3c-76" value="" style="rounded=1;whiteSpace=wrap;html=1;shadow=0.5;arcSize=50;fillColor=#EDEDED;" parent="1" vertex="1">
          <mxGeometry x="1426" y="918.74" width="75" height="20" as="geometry" />
        </mxCell>
        <mxCell id="4HA8udhoHXV0gb3-ap3c-77" value="Darse de baja" style="text;html=1;strokeColor=none;fillColor=none;align=center;verticalAlign=middle;whiteSpace=wrap;rounded=0;fontSize=9;fontStyle=1" parent="1" vertex="1">
          <mxGeometry x="1422" y="923" width="79" height="10" as="geometry" />
        </mxCell>
        <mxCell id="4HA8udhoHXV0gb3-ap3c-78" value="" style="rounded=0;whiteSpace=wrap;html=1;gradientColor=#e3e3e3;gradientDirection=radial;" parent="1" vertex="1">
          <mxGeometry x="1320" y="1366" width="400" height="348" as="geometry" />
        </mxCell>
        <mxCell id="4HA8udhoHXV0gb3-ap3c-79" value="" style="shape=document;whiteSpace=wrap;html=1;boundedLbl=1;fillColor=#FAFAFA;" parent="1" vertex="1">
          <mxGeometry x="1320" y="1330" width="400" height="101" as="geometry" />
        </mxCell>
        <mxCell id="4HA8udhoHXV0gb3-ap3c-80" value="&lt;font style=&quot;font-size: 28px;&quot;&gt;&lt;b&gt;e&lt;/b&gt;Gym&lt;/font&gt;" style="text;html=1;strokeColor=none;fillColor=none;align=center;verticalAlign=middle;whiteSpace=wrap;rounded=0;fontSize=16;" parent="1" vertex="1">
          <mxGeometry x="1475" y="1340" width="90" height="40" as="geometry" />
        </mxCell>
        <mxCell id="4HA8udhoHXV0gb3-ap3c-81" value="&lt;font style=&quot;font-size: 11px;&quot;&gt;calculadora&lt;/font&gt;" style="text;html=1;strokeColor=none;fillColor=none;align=center;verticalAlign=middle;whiteSpace=wrap;rounded=0;fontSize=16;" parent="1" vertex="1">
          <mxGeometry x="1337" y="1382" width="60" height="30" as="geometry" />
        </mxCell>
        <mxCell id="4HA8udhoHXV0gb3-ap3c-82" value="&lt;span style=&quot;font-size: 11px;&quot;&gt;deporte&lt;/span&gt;" style="text;html=1;strokeColor=none;fillColor=none;align=center;verticalAlign=middle;whiteSpace=wrap;rounded=0;fontSize=16;" parent="1" vertex="1">
          <mxGeometry x="1393.5" y="1382" width="60" height="30" as="geometry" />
        </mxCell>
        <mxCell id="4HA8udhoHXV0gb3-ap3c-83" value="&lt;font style=&quot;font-size: 10px;&quot;&gt;Idioma&lt;/font&gt;" style="text;html=1;strokeColor=none;fillColor=none;align=center;verticalAlign=middle;whiteSpace=wrap;rounded=0;fontSize=16;" parent="1" vertex="1">
          <mxGeometry x="1665" y="1382" width="60" height="30" as="geometry" />
        </mxCell>
        <mxCell id="4HA8udhoHXV0gb3-ap3c-84" value="" style="triangle;whiteSpace=wrap;html=1;fontSize=16;rotation=90;fillColor=#000000;" parent="1" vertex="1">
          <mxGeometry x="1712.27" y="1398.74" width="1.59" height="2.63" as="geometry" />
        </mxCell>
        <mxCell id="4HA8udhoHXV0gb3-ap3c-85" value="" style="triangle;whiteSpace=wrap;html=1;fontSize=16;rotation=90;fillColor=#000000;" parent="1" vertex="1">
          <mxGeometry x="1444.6799999999998" y="1398.18" width="2.32" height="2.63" as="geometry" />
        </mxCell>
        <mxCell id="4HA8udhoHXV0gb3-ap3c-86" value="&lt;font style=&quot;font-size: 9px;&quot;&gt;Usuario&lt;/font&gt;" style="text;html=1;strokeColor=none;fillColor=none;align=center;verticalAlign=middle;whiteSpace=wrap;rounded=0;fontSize=16;" parent="1" vertex="1">
          <mxGeometry x="1622" y="1353" width="60" height="30" as="geometry" />
        </mxCell>
        <mxCell id="4HA8udhoHXV0gb3-ap3c-87" value="" style="ellipse;whiteSpace=wrap;html=1;aspect=fixed;" parent="1" vertex="1">
          <mxGeometry x="1634.5" y="1382" width="35" height="35" as="geometry" />
        </mxCell>
        <mxCell id="4HA8udhoHXV0gb3-ap3c-88" value="&lt;font style=&quot;font-size: 11px;&quot;&gt;mapa web&lt;/font&gt;" style="text;html=1;strokeColor=none;fillColor=none;align=center;verticalAlign=middle;whiteSpace=wrap;rounded=0;fontSize=16;" parent="1" vertex="1">
          <mxGeometry x="1453.5" y="1381" width="55.5" height="32" as="geometry" />
        </mxCell>
        <mxCell id="4HA8udhoHXV0gb3-ap3c-89" value="&lt;font style=&quot;font-size: 11px;&quot;&gt;accesibilidad&lt;/font&gt;" style="text;html=1;strokeColor=none;fillColor=none;align=center;verticalAlign=middle;whiteSpace=wrap;rounded=0;fontSize=16;" parent="1" vertex="1">
          <mxGeometry x="1521" y="1382" width="60" height="30" as="geometry" />
        </mxCell>
        <mxCell id="4HA8udhoHXV0gb3-ap3c-90" value="" style="shape=umlActor;verticalLabelPosition=bottom;verticalAlign=top;html=1;outlineConnect=0;" parent="1" vertex="1">
          <mxGeometry x="1646.5" y="1386.99" width="11" height="25" as="geometry" />
        </mxCell>
        <mxCell id="4HA8udhoHXV0gb3-ap3c-91" value="" style="rounded=1;whiteSpace=wrap;html=1;shadow=1;fontColor=#999999;fillColor=#BABABA;collapsible=0;dropTarget=0;container=0;backgroundOutline=0;movableLabel=0;autosize=0;fixedWidth=0;resizeWidth=1;resizeHeight=1;" parent="1" vertex="1">
          <mxGeometry x="1417.5" y="1477" width="205" height="197" as="geometry" />
        </mxCell>
        <mxCell id="4HA8udhoHXV0gb3-ap3c-92" value="" style="rounded=1;whiteSpace=wrap;html=1;shadow=0;arcSize=15;" parent="1" vertex="1">
          <mxGeometry x="1417" y="1477" width="205" height="157" as="geometry" />
        </mxCell>
        <mxCell id="4HA8udhoHXV0gb3-ap3c-93" value="" style="rounded=0;whiteSpace=wrap;html=1;fillColor=#D9D9D9;" parent="1" vertex="1">
          <mxGeometry x="1320" y="1714" width="400" height="93" as="geometry" />
        </mxCell>
        <mxCell id="4HA8udhoHXV0gb3-ap3c-94" value="EGym" style="text;html=1;strokeColor=none;fillColor=none;align=center;verticalAlign=middle;whiteSpace=wrap;rounded=0;fontSize=16;" parent="1" vertex="1">
          <mxGeometry x="1468" y="1726" width="110" height="30" as="geometry" />
        </mxCell>
        <mxCell id="4HA8udhoHXV0gb3-ap3c-95" value="" style="endArrow=none;html=1;rounded=0;fontSize=12;startSize=8;endSize=8;curved=1;entryX=1;entryY=1;entryDx=0;entryDy=0;exitX=0;exitY=1;exitDx=0;exitDy=0;" parent="1" source="4HA8udhoHXV0gb3-ap3c-94" target="4HA8udhoHXV0gb3-ap3c-94" edge="1">
          <mxGeometry width="50" height="50" relative="1" as="geometry">
            <mxPoint x="1490.5" y="1814" as="sourcePoint" />
            <mxPoint x="1540.5" y="1764" as="targetPoint" />
          </mxGeometry>
        </mxCell>
        <mxCell id="4HA8udhoHXV0gb3-ap3c-96" value="Ln" style="ellipse;whiteSpace=wrap;html=1;aspect=fixed;fontSize=16;" parent="1" vertex="1">
          <mxGeometry x="1512.5" y="1767" width="25" height="25" as="geometry" />
        </mxCell>
        <mxCell id="4HA8udhoHXV0gb3-ap3c-97" value="Tw" style="ellipse;whiteSpace=wrap;html=1;aspect=fixed;fontSize=16;" parent="1" vertex="1">
          <mxGeometry x="1553" y="1767" width="25" height="25" as="geometry" />
        </mxCell>
        <mxCell id="4HA8udhoHXV0gb3-ap3c-98" value="Fb" style="ellipse;whiteSpace=wrap;html=1;aspect=fixed;fontSize=16;" parent="1" vertex="1">
          <mxGeometry x="1471.5" y="1767" width="25" height="25" as="geometry" />
        </mxCell>
        <mxCell id="4HA8udhoHXV0gb3-ap3c-99" value="Yt" style="ellipse;whiteSpace=wrap;html=1;aspect=fixed;fontSize=16;" parent="1" vertex="1">
          <mxGeometry x="1593.25" y="1767" width="25" height="25" as="geometry" />
        </mxCell>
        <mxCell id="4HA8udhoHXV0gb3-ap3c-100" value="In" style="ellipse;whiteSpace=wrap;html=1;aspect=fixed;fontSize=16;" parent="1" vertex="1">
          <mxGeometry x="1430.5" y="1767" width="25" height="25" as="geometry" />
        </mxCell>
        <mxCell id="4HA8udhoHXV0gb3-ap3c-101" value="" style="rounded=0;whiteSpace=wrap;html=1;fillColor=#B3B3B3;" parent="1" vertex="1">
          <mxGeometry x="1320.5" y="1807" width="400" height="23" as="geometry" />
        </mxCell>
        <mxCell id="4HA8udhoHXV0gb3-ap3c-102" value="&lt;font size=&quot;1&quot;&gt;Miquel Rodrigo Navarro | @Copyright | www.egym.com | v.01&lt;/font&gt;" style="text;html=1;strokeColor=none;fillColor=none;align=left;verticalAlign=middle;whiteSpace=wrap;rounded=0;" parent="1" vertex="1">
          <mxGeometry x="1320" y="1802.5" width="307.5" height="30" as="geometry" />
        </mxCell>
        <mxCell id="4HA8udhoHXV0gb3-ap3c-106" value="Deporte" style="text;html=1;strokeColor=none;fillColor=none;align=left;verticalAlign=middle;whiteSpace=wrap;rounded=0;" parent="1" vertex="1">
          <mxGeometry x="1431" y="1506.5" width="70" height="16" as="geometry" />
        </mxCell>
        <mxCell id="4HA8udhoHXV0gb3-ap3c-107" value="" style="triangle;whiteSpace=wrap;html=1;fontSize=16;rotation=90;fillColor=#000000;" parent="1" vertex="1">
          <mxGeometry x="1480.3399999999997" y="1513.3700000000001" width="2.32" height="2.63" as="geometry" />
        </mxCell>
        <mxCell id="4HA8udhoHXV0gb3-ap3c-109" value="Dificultad" style="text;html=1;strokeColor=none;fillColor=none;align=left;verticalAlign=middle;whiteSpace=wrap;rounded=0;" parent="1" vertex="1">
          <mxGeometry x="1536" y="1506" width="72.5" height="16" as="geometry" />
        </mxCell>
        <mxCell id="4HA8udhoHXV0gb3-ap3c-110" value="" style="triangle;whiteSpace=wrap;html=1;fontSize=16;rotation=90;fillColor=#000000;" parent="1" vertex="1">
          <mxGeometry x="1591.9299999999998" y="1512.3700000000001" width="2.32" height="2.63" as="geometry" />
        </mxCell>
        <mxCell id="4HA8udhoHXV0gb3-ap3c-112" value="Archivo" style="text;html=1;strokeColor=none;fillColor=none;align=center;verticalAlign=middle;whiteSpace=wrap;rounded=0;fontStyle=0" parent="1" vertex="1">
          <mxGeometry x="1470.37" y="1536" width="98.25" height="16" as="geometry" />
        </mxCell>
        <mxCell id="4HA8udhoHXV0gb3-ap3c-113" value="" style="endArrow=none;html=1;rounded=0;exitX=0;exitY=1;exitDx=0;exitDy=0;entryX=1;entryY=1;entryDx=0;entryDy=0;" parent="1" source="4HA8udhoHXV0gb3-ap3c-106" target="4HA8udhoHXV0gb3-ap3c-106" edge="1">
          <mxGeometry width="50" height="50" relative="1" as="geometry">
            <mxPoint x="1472.5" y="1531" as="sourcePoint" />
            <mxPoint x="1522.5" y="1481" as="targetPoint" />
          </mxGeometry>
        </mxCell>
        <mxCell id="4HA8udhoHXV0gb3-ap3c-115" value="" style="endArrow=none;html=1;rounded=0;exitX=0;exitY=1;exitDx=0;exitDy=0;entryX=1;entryY=1;entryDx=0;entryDy=0;" parent="1" source="4HA8udhoHXV0gb3-ap3c-109" target="4HA8udhoHXV0gb3-ap3c-109" edge="1">
          <mxGeometry width="50" height="50" relative="1" as="geometry">
            <mxPoint x="1442.5" y="1551" as="sourcePoint" />
            <mxPoint x="1512.5" y="1551" as="targetPoint" />
          </mxGeometry>
        </mxCell>
        <mxCell id="4HA8udhoHXV0gb3-ap3c-125" value="Subir video" style="rounded=1;whiteSpace=wrap;html=1;" parent="1" vertex="1">
          <mxGeometry x="1480.34" y="1645" width="77" height="20" as="geometry" />
        </mxCell>
        <mxCell id="4HA8udhoHXV0gb3-ap3c-126" value="" style="endArrow=none;html=1;rounded=0;entryX=1;entryY=1;entryDx=0;entryDy=0;" parent="1" edge="1">
          <mxGeometry width="50" height="50" relative="1" as="geometry">
            <mxPoint x="1422.5" y="1545" as="sourcePoint" />
            <mxPoint x="1469.5" y="1545" as="targetPoint" />
          </mxGeometry>
        </mxCell>
        <mxCell id="4HA8udhoHXV0gb3-ap3c-127" value="" style="endArrow=none;html=1;rounded=0;" parent="1" edge="1">
          <mxGeometry width="50" height="50" relative="1" as="geometry">
            <mxPoint x="1571.5" y="1545" as="sourcePoint" />
            <mxPoint x="1618.5" y="1545" as="targetPoint" />
          </mxGeometry>
        </mxCell>
        <mxCell id="4HA8udhoHXV0gb3-ap3c-128" value="" style="rounded=1;whiteSpace=wrap;html=1;fontSize=16;" parent="1" vertex="1">
          <mxGeometry x="1460" y="1560" width="120" height="64" as="geometry" />
        </mxCell>
        <mxCell id="4HA8udhoHXV0gb3-ap3c-129" value="Upload a File" style="text;html=1;strokeColor=none;fillColor=none;align=center;verticalAlign=middle;whiteSpace=wrap;rounded=0;fontSize=10;" parent="1" vertex="1">
          <mxGeometry x="1468" y="1564" width="62" height="20" as="geometry" />
        </mxCell>
        <mxCell id="4HA8udhoHXV0gb3-ap3c-131" value="" style="rounded=1;whiteSpace=wrap;html=1;fontSize=16;strokeColor=none;dashed=1;dashPattern=8 8;" parent="1" vertex="1">
          <mxGeometry x="1475.5" y="1594" width="89" height="20" as="geometry" />
        </mxCell>
        <mxCell id="4HA8udhoHXV0gb3-ap3c-132" value="&lt;font style=&quot;font-size: 8px;&quot;&gt;Choose file&lt;/font&gt;" style="text;html=1;strokeColor=default;fillColor=none;align=center;verticalAlign=middle;whiteSpace=wrap;rounded=1;fontSize=10;dashed=1;strokeWidth=0.5;" parent="1" vertex="1">
          <mxGeometry x="1470" y="1602" width="100" height="10" as="geometry" />
        </mxCell>
        <mxCell id="4HA8udhoHXV0gb3-ap3c-133" value="Selecciona un archivo de tu ordenador" style="text;html=1;strokeColor=none;fillColor=none;align=left;verticalAlign=middle;whiteSpace=wrap;rounded=0;fontSize=6;" parent="1" vertex="1">
          <mxGeometry x="1468" y="1581" width="112" height="20" as="geometry" />
        </mxCell>
        <mxCell id="4HA8udhoHXV0gb3-ap3c-135" value="Pagina principal&lt;br&gt;&lt;ul&gt;&lt;li&gt;todos los usuarios&lt;/li&gt;&lt;/ul&gt;" style="rounded=1;whiteSpace=wrap;html=1;fontSize=16;align=left;" parent="1" vertex="1">
          <mxGeometry x="100" y="-120" width="180" height="110" as="geometry" />
        </mxCell>
        <mxCell id="4HA8udhoHXV0gb3-ap3c-136" value="Pagina registro&lt;br&gt;&lt;ul&gt;&lt;li&gt;usuarios no registrados&lt;/li&gt;&lt;/ul&gt;" style="rounded=1;whiteSpace=wrap;html=1;fontSize=16;align=left;" parent="1" vertex="1">
          <mxGeometry x="552.36" y="-120" width="180" height="110" as="geometry" />
        </mxCell>
        <mxCell id="4HA8udhoHXV0gb3-ap3c-137" value="Pagina login&lt;br&gt;&lt;ul&gt;&lt;li&gt;usuarios registrados no logeados&lt;/li&gt;&lt;/ul&gt;" style="rounded=1;whiteSpace=wrap;html=1;fontSize=16;align=left;" parent="1" vertex="1">
          <mxGeometry x="996.5" y="-140" width="180" height="130" as="geometry" />
        </mxCell>
        <mxCell id="4HA8udhoHXV0gb3-ap3c-138" value="Pagina control usuarios&lt;br&gt;&lt;ul&gt;&lt;li&gt;administrador&lt;/li&gt;&lt;/ul&gt;" style="rounded=1;whiteSpace=wrap;html=1;fontSize=16;align=left;" parent="1" vertex="1">
          <mxGeometry x="1430.5" y="-110" width="180" height="100" as="geometry" />
        </mxCell>
        <mxCell id="4HA8udhoHXV0gb3-ap3c-139" value="Pagina valoraciones&lt;br&gt;&lt;ul&gt;&lt;li&gt;usuarios registrados y administrador&lt;/li&gt;&lt;/ul&gt;" style="rounded=1;whiteSpace=wrap;html=1;fontSize=16;align=left;" parent="1" vertex="1">
          <mxGeometry x="100" y="1310" width="180" height="130" as="geometry" />
        </mxCell>
        <mxCell id="4HA8udhoHXV0gb3-ap3c-141" value="Pagina calculadora&lt;br&gt;&lt;ul&gt;&lt;li&gt;usuarios registrados y administrador&lt;/li&gt;&lt;/ul&gt;" style="rounded=1;whiteSpace=wrap;html=1;fontSize=16;align=left;" parent="1" vertex="1">
          <mxGeometry x="554.86" y="605.32" width="180" height="130" as="geometry" />
        </mxCell>
        <mxCell id="qrhDRG57Tv73mxV9hcQT-1" value="Pagina mapa web&lt;br&gt;&lt;ul&gt;&lt;li&gt;todos los usuarios&lt;/li&gt;&lt;/ul&gt;" style="rounded=1;whiteSpace=wrap;html=1;fontSize=16;align=left;" vertex="1" parent="1">
          <mxGeometry x="554.36" y="1342.18" width="180" height="97.82" as="geometry" />
        </mxCell>
        <mxCell id="qrhDRG57Tv73mxV9hcQT-2" value="Pagina deportes&lt;br&gt;&lt;ul&gt;&lt;li&gt;todos los usuarios&lt;/li&gt;&lt;/ul&gt;" style="rounded=1;whiteSpace=wrap;html=1;fontSize=16;align=left;" vertex="1" parent="1">
          <mxGeometry x="989" y="567" width="180" height="114" as="geometry" />
        </mxCell>
        <mxCell id="qrhDRG57Tv73mxV9hcQT-3" value="Pagina perfil&lt;br&gt;&lt;ul&gt;&lt;li&gt;usuarios registrados y administrador&lt;/li&gt;&lt;/ul&gt;" style="rounded=1;whiteSpace=wrap;html=1;fontSize=16;align=left;" vertex="1" parent="1">
          <mxGeometry x="1430" y="523" width="180" height="114" as="geometry" />
        </mxCell>
        <mxCell id="qrhDRG57Tv73mxV9hcQT-4" value="&lt;br&gt;Pagina subir archivo&lt;br&gt;&lt;ul&gt;&lt;li&gt;usuarios administrador&lt;/li&gt;&lt;/ul&gt;" style="rounded=1;whiteSpace=wrap;html=1;fontSize=16;align=left;" vertex="1" parent="1">
          <mxGeometry x="1433" y="1204" width="180" height="114" as="geometry" />
        </mxCell>
      </root>
    </mxGraphModel>
  </diagram>
</mxfile>
